<svg id="svg" version="1.1" xmlns="http://www.w3.org/2000/svg" xmlns:xlink="http://www.w3.org/1999/xlink" width="400" height="104.04984423676012" viewBox="0, 0, 400,104.04984423676012"><g id="svgg"><path id="path0" d="M20.205 24.333 C 20.020 24.631,19.817 24.667,18.327 24.667 C 16.996 24.667,16.637 24.717,16.560 24.917 C 16.502 25.068,16.250 25.167,15.921 25.167 C 15.623 25.167,15.188 25.317,14.955 25.500 C 14.721 25.683,14.299 25.833,14.015 25.833 C 13.611 25.833,13.500 25.905,13.500 26.167 C 13.500 26.389,13.389 26.500,13.167 26.500 C 12.944 26.500,12.833 26.611,12.833 26.833 C 12.833 27.111,12.722 27.167,12.167 27.167 C 11.685 27.167,11.500 27.236,11.500 27.417 C 11.500 27.554,11.380 27.667,11.234 27.667 C 11.088 27.667,10.930 27.817,10.882 28.000 C 10.834 28.183,10.691 28.333,10.564 28.333 C 10.437 28.333,10.333 28.483,10.333 28.667 C 10.333 28.889,10.222 29.000,10.000 29.000 C 9.778 29.000,9.667 29.111,9.667 29.333 C 9.667 29.556,9.556 29.667,9.333 29.667 C 9.148 29.667,9.000 29.778,9.000 29.917 C 9.000 30.054,8.887 30.167,8.750 30.167 C 8.612 30.167,8.500 30.277,8.500 30.411 C 8.500 30.545,8.350 30.735,8.167 30.833 C 7.951 30.949,7.833 31.182,7.833 31.495 C 7.833 31.831,7.732 32.010,7.500 32.083 C 7.255 32.161,7.167 32.336,7.167 32.742 C 7.167 33.154,7.082 33.317,6.833 33.382 C 6.555 33.454,6.500 33.609,6.500 34.318 C 6.500 34.961,6.440 35.167,6.250 35.167 C 6.034 35.167,6.000 35.759,6.000 39.500 C 6.000 43.241,6.034 43.833,6.250 43.833 C 6.440 43.833,6.500 44.039,6.500 44.682 C 6.500 45.391,6.555 45.546,6.833 45.618 C 7.086 45.684,7.167 45.846,7.167 46.285 C 7.167 46.724,7.247 46.886,7.500 46.952 C 7.684 47.000,7.833 47.179,7.833 47.353 C 7.833 47.525,7.937 47.667,8.064 47.667 C 8.191 47.667,8.334 47.817,8.382 48.000 C 8.430 48.183,8.588 48.333,8.734 48.333 C 8.880 48.333,9.000 48.446,9.000 48.583 C 9.000 48.722,9.148 48.833,9.333 48.833 C 9.556 48.833,9.667 48.944,9.667 49.167 C 9.667 49.389,9.778 49.500,10.000 49.500 C 10.222 49.500,10.333 49.611,10.333 49.833 C 10.333 50.017,10.411 50.167,10.506 50.167 C 10.600 50.167,10.940 50.429,11.261 50.750 C 11.666 51.154,11.996 51.333,12.339 51.333 C 12.722 51.333,12.833 51.408,12.833 51.667 C 12.833 51.934,12.944 52.000,13.397 52.000 C 13.821 52.000,13.983 52.083,14.048 52.333 C 14.121 52.612,14.276 52.667,14.984 52.667 C 15.628 52.667,15.833 52.727,15.833 52.917 C 15.833 53.096,16.016 53.167,16.481 53.167 C 16.988 53.167,17.147 53.239,17.215 53.500 C 17.292 53.794,17.442 53.833,18.484 53.833 C 19.556 53.833,19.667 53.865,19.667 54.167 C 19.667 54.457,19.778 54.500,20.523 54.500 C 21.136 54.500,21.439 54.580,21.586 54.782 C 21.733 54.984,22.111 55.085,22.897 55.135 C 23.691 55.186,24.000 55.270,24.000 55.436 C 24.000 55.606,24.254 55.667,24.963 55.667 C 25.720 55.667,25.987 55.738,26.211 56.000 C 26.394 56.214,26.703 56.333,27.070 56.333 C 27.498 56.333,27.671 56.418,27.750 56.667 C 27.829 56.915,28.002 57.000,28.428 57.000 C 28.805 57.000,29.000 57.079,29.000 57.231 C 29.000 57.364,29.249 57.510,29.583 57.572 C 29.933 57.638,30.167 57.779,30.167 57.924 C 30.167 58.058,30.317 58.167,30.500 58.167 C 30.722 58.167,30.833 58.278,30.833 58.500 C 30.833 58.722,30.944 58.833,31.167 58.833 C 31.389 58.833,31.500 58.944,31.500 59.167 C 31.500 59.389,31.611 59.500,31.833 59.500 C 32.152 59.500,32.167 59.611,32.167 62.000 C 32.167 64.389,32.152 64.500,31.833 64.500 C 31.639 64.500,31.500 64.611,31.500 64.766 C 31.500 64.912,31.350 65.070,31.167 65.118 C 30.983 65.166,30.833 65.301,30.833 65.417 C 30.833 65.533,30.683 65.667,30.500 65.715 C 30.317 65.763,30.167 65.922,30.167 66.068 C 30.167 66.260,30.006 66.333,29.583 66.333 C 29.111 66.333,29.000 66.397,29.000 66.667 C 29.000 66.960,28.889 67.000,28.083 67.000 C 27.380 67.000,27.167 67.058,27.167 67.250 C 27.167 67.462,26.741 67.500,24.333 67.500 C 21.926 67.500,21.500 67.462,21.500 67.250 C 21.500 67.050,21.252 67.000,20.269 67.000 C 19.179 67.000,19.029 66.962,18.952 66.667 C 18.879 66.390,18.724 66.333,18.035 66.333 C 17.346 66.333,17.191 66.277,17.118 66.000 C 17.052 65.745,16.891 65.667,16.432 65.667 C 16.032 65.667,15.833 65.590,15.833 65.435 C 15.833 65.303,15.584 65.157,15.250 65.094 C 14.901 65.029,14.667 64.888,14.667 64.742 C 14.667 64.609,14.525 64.500,14.353 64.500 C 14.179 64.500,14.000 64.351,13.952 64.167 C 13.888 63.924,13.724 63.833,13.349 63.833 C 12.988 63.833,12.833 63.754,12.833 63.568 C 12.833 63.422,12.683 63.263,12.500 63.215 C 12.317 63.167,12.167 63.024,12.167 62.897 C 12.167 62.770,12.017 62.667,11.833 62.667 C 11.611 62.667,11.500 62.556,11.500 62.333 C 11.500 62.063,11.389 62.000,10.917 62.000 C 10.444 62.000,10.333 61.937,10.333 61.667 C 10.333 61.375,10.222 61.333,9.438 61.333 L 8.543 61.333 8.436 62.000 C 8.367 62.431,8.242 62.667,8.081 62.667 C 7.945 62.667,7.833 62.779,7.833 62.917 C 7.833 63.056,7.685 63.167,7.500 63.167 C 7.278 63.167,7.167 63.278,7.167 63.500 C 7.167 63.688,7.056 63.833,6.913 63.833 C 6.773 63.833,6.587 64.021,6.500 64.250 C 6.413 64.479,6.265 64.667,6.171 64.667 C 6.077 64.667,6.000 64.892,6.000 65.167 C 6.000 65.556,5.926 65.667,5.667 65.667 C 5.444 65.667,5.333 65.778,5.333 66.000 C 5.333 66.222,5.222 66.333,5.000 66.333 C 4.778 66.333,4.667 66.444,4.667 66.667 C 4.667 66.889,4.556 67.000,4.333 67.000 C 3.846 67.000,3.832 68.654,4.318 68.781 C 4.493 68.827,4.673 69.007,4.719 69.182 C 4.765 69.357,4.922 69.500,5.068 69.500 C 5.214 69.500,5.333 69.612,5.333 69.750 C 5.333 69.889,5.481 70.000,5.667 70.000 C 5.850 70.000,6.000 70.104,6.000 70.232 C 6.000 70.487,6.350 70.667,6.847 70.667 C 7.056 70.667,7.167 70.783,7.167 71.000 C 7.167 71.222,7.278 71.333,7.500 71.333 C 7.683 71.333,7.833 71.442,7.833 71.576 C 7.833 71.721,8.067 71.862,8.417 71.928 C 8.751 71.990,9.000 72.136,9.000 72.269 C 9.000 72.396,9.132 72.500,9.293 72.500 C 9.455 72.500,9.680 72.650,9.795 72.833 C 9.924 73.041,10.183 73.167,10.482 73.167 C 10.821 73.167,10.987 73.264,11.048 73.500 C 11.111 73.739,11.276 73.833,11.633 73.833 C 11.922 73.833,12.171 73.938,12.227 74.083 C 12.287 74.239,12.541 74.333,12.898 74.333 C 13.637 74.333,14.000 74.476,14.000 74.768 C 14.000 74.938,14.241 75.000,14.897 75.000 C 15.654 75.000,15.808 75.052,15.882 75.333 C 15.958 75.626,16.109 75.667,17.132 75.667 C 18.154 75.667,18.305 75.707,18.382 76.000 C 18.538 76.597,30.167 76.497,30.167 75.899 C 30.167 75.729,30.411 75.667,31.083 75.667 C 31.889 75.667,32.000 75.626,32.000 75.333 C 32.000 75.045,32.111 75.000,32.827 75.000 C 33.484 75.000,33.692 74.931,33.833 74.667 C 33.931 74.483,34.122 74.333,34.256 74.333 C 34.390 74.333,34.500 74.221,34.500 74.083 C 34.500 73.903,34.685 73.833,35.167 73.833 C 35.722 73.833,35.833 73.778,35.833 73.500 C 35.833 73.278,35.944 73.167,36.167 73.167 C 36.389 73.167,36.500 73.056,36.500 72.833 C 36.500 72.572,36.611 72.500,37.016 72.500 C 37.391 72.500,37.555 72.409,37.618 72.167 C 37.667 71.982,37.846 71.833,38.019 71.833 C 38.192 71.833,38.333 71.721,38.333 71.583 C 38.333 71.446,38.483 71.183,38.667 71.000 C 38.850 70.817,39.000 70.517,39.000 70.333 C 39.000 70.148,39.111 70.000,39.250 70.000 C 39.387 70.000,39.500 69.893,39.500 69.761 C 39.500 69.630,39.650 69.475,39.833 69.417 C 40.081 69.338,40.167 69.164,40.167 68.739 C 40.167 68.278,40.231 68.167,40.500 68.167 C 40.769 68.167,40.833 68.056,40.833 67.592 C 40.833 67.227,40.935 66.959,41.113 66.860 C 41.315 66.747,41.414 66.407,41.467 65.643 C 41.513 64.987,41.629 64.533,41.771 64.450 C 42.110 64.253,42.109 57.667,41.769 57.667 C 41.603 57.667,41.519 57.358,41.469 56.563 C 41.419 55.778,41.317 55.400,41.116 55.253 C 40.956 55.137,40.833 54.824,40.833 54.535 C 40.833 54.169,40.738 53.992,40.500 53.917 C 40.317 53.858,40.167 53.712,40.167 53.592 C 40.167 53.471,40.017 53.333,39.833 53.285 C 39.598 53.224,39.500 53.058,39.500 52.723 C 39.500 52.393,39.322 52.084,38.917 51.712 C 38.596 51.418,38.333 51.100,38.333 51.005 C 38.333 50.911,38.109 50.833,37.835 50.833 C 37.517 50.833,37.261 50.713,37.128 50.500 C 37.013 50.317,36.825 50.167,36.710 50.167 C 36.594 50.167,36.500 50.017,36.500 49.833 C 36.500 49.648,36.389 49.500,36.250 49.500 C 36.112 49.500,35.850 49.350,35.667 49.167 C 35.483 48.983,35.146 48.833,34.917 48.833 C 34.657 48.833,34.500 48.739,34.500 48.583 C 34.500 48.410,34.326 48.333,33.936 48.333 C 33.512 48.333,33.351 48.250,33.285 48.000 C 33.213 47.723,33.058 47.667,32.368 47.667 C 31.679 47.667,31.524 47.610,31.452 47.333 C 31.379 47.056,31.224 47.000,30.527 47.000 C 29.836 47.000,29.671 46.942,29.583 46.667 C 29.495 46.387,29.331 46.333,28.572 46.333 C 27.878 46.333,27.667 46.275,27.667 46.083 C 27.667 45.883,27.417 45.833,26.417 45.833 C 25.278 45.833,25.167 45.804,25.167 45.500 C 25.167 45.207,25.056 45.167,24.250 45.167 C 23.578 45.167,23.333 45.105,23.333 44.934 C 23.333 44.627,22.964 44.500,22.070 44.500 C 21.534 44.500,21.333 44.433,21.333 44.256 C 21.333 44.088,21.071 43.977,20.500 43.901 C 19.959 43.829,19.667 43.710,19.667 43.562 C 19.667 43.406,19.454 43.333,19.000 43.333 C 18.444 43.333,18.333 43.278,18.333 43.000 C 18.333 42.730,18.222 42.667,17.750 42.667 C 17.278 42.667,17.167 42.603,17.167 42.333 C 17.167 42.111,17.056 42.000,16.833 42.000 C 16.650 42.000,16.500 41.893,16.500 41.761 C 16.500 41.630,16.350 41.475,16.167 41.417 C 15.893 41.330,15.833 41.164,15.833 40.489 C 15.833 39.869,15.772 39.667,15.583 39.667 C 15.389 39.667,15.333 39.446,15.333 38.684 C 15.333 37.965,15.400 37.677,15.583 37.606 C 15.760 37.539,15.833 37.264,15.833 36.672 C 15.833 35.944,15.878 35.833,16.167 35.833 C 16.389 35.833,16.500 35.722,16.500 35.500 C 16.500 35.278,16.611 35.167,16.833 35.167 C 17.056 35.167,17.167 35.056,17.167 34.833 C 17.167 34.563,17.278 34.500,17.750 34.500 C 18.157 34.500,18.333 34.425,18.333 34.250 C 18.333 34.097,18.489 34.000,18.736 34.000 C 19.312 34.000,19.667 33.834,19.667 33.566 C 19.667 33.181,25.637 33.229,25.920 33.616 C 26.067 33.817,26.445 33.919,27.230 33.969 C 28.024 34.019,28.333 34.103,28.333 34.269 C 28.333 34.427,28.543 34.500,29.000 34.500 C 29.556 34.500,29.667 34.556,29.667 34.833 C 29.667 35.101,29.778 35.167,30.231 35.167 C 30.654 35.167,30.816 35.250,30.882 35.500 C 30.948 35.755,31.109 35.833,31.568 35.833 C 32.056 35.833,32.167 35.895,32.167 36.167 C 32.167 36.383,32.278 36.500,32.482 36.500 C 32.656 36.500,32.841 36.612,32.894 36.750 C 32.950 36.896,33.199 37.000,33.495 37.000 C 33.889 37.000,34.000 37.073,34.000 37.333 C 34.000 37.556,34.111 37.667,34.333 37.667 C 34.556 37.667,34.667 37.778,34.667 38.000 C 34.667 38.253,34.777 38.333,35.125 38.331 C 36.031 38.327,36.320 38.157,36.431 37.565 C 36.491 37.245,36.637 37.000,36.769 37.000 C 36.922 37.000,37.000 36.803,37.000 36.417 C 37.000 35.944,37.063 35.833,37.333 35.833 C 37.556 35.833,37.667 35.722,37.667 35.500 C 37.667 35.278,37.778 35.167,38.000 35.167 C 38.270 35.167,38.333 35.056,38.333 34.583 C 38.333 34.161,38.407 34.000,38.599 34.000 C 38.745 34.000,38.904 33.850,38.952 33.667 C 39.000 33.483,39.143 33.333,39.269 33.333 C 39.427 33.333,39.500 33.123,39.500 32.667 C 39.500 32.132,39.560 32.000,39.805 32.000 C 39.973 32.000,40.207 31.819,40.326 31.598 C 40.596 31.093,40.251 30.167,39.793 30.167 C 39.632 30.167,39.500 30.054,39.500 29.917 C 39.500 29.779,39.396 29.667,39.269 29.667 C 39.143 29.667,39.000 29.517,38.952 29.333 C 38.885 29.078,38.724 29.000,38.266 29.000 C 37.778 29.000,37.667 28.938,37.667 28.667 C 37.667 28.444,37.556 28.333,37.333 28.333 C 37.111 28.333,37.000 28.222,37.000 28.000 C 37.000 27.730,36.889 27.667,36.417 27.667 C 36.009 27.667,35.833 27.591,35.833 27.417 C 35.833 27.236,35.648 27.167,35.167 27.167 C 34.611 27.167,34.500 27.111,34.500 26.833 C 34.500 26.563,34.389 26.500,33.917 26.500 C 33.444 26.500,33.333 26.437,33.333 26.167 C 33.333 25.888,33.222 25.833,32.660 25.833 C 32.216 25.833,31.864 25.719,31.628 25.500 C 31.364 25.253,31.040 25.167,30.385 25.167 C 29.709 25.167,29.500 25.108,29.500 24.917 C 29.500 24.710,29.185 24.667,27.667 24.667 C 25.944 24.667,25.833 24.646,25.833 24.333 C 25.833 24.014,25.722 24.000,23.123 24.000 C 20.594 24.000,20.400 24.022,20.205 24.333 M186.839 24.989 C 186.722 25.207,186.667 33.452,186.667 50.489 L 186.667 75.667 191.320 75.667 C 193.879 75.667,196.091 75.621,196.236 75.566 C 196.474 75.474,196.502 73.843,196.519 58.941 C 196.530 49.852,196.576 42.567,196.621 42.750 C 196.667 42.933,196.808 43.143,196.935 43.217 C 197.063 43.290,197.167 43.459,197.167 43.592 C 197.167 43.725,197.317 43.833,197.500 43.833 C 197.771 43.833,197.833 43.944,197.833 44.432 C 197.833 44.891,197.911 45.052,198.167 45.118 C 198.351 45.167,198.500 45.346,198.500 45.519 C 198.500 45.692,198.612 45.833,198.750 45.833 C 198.918 45.833,199.000 46.002,199.000 46.349 C 199.000 46.724,199.091 46.888,199.333 46.952 C 199.518 47.000,199.667 47.179,199.667 47.353 C 199.667 47.556,199.785 47.667,200.000 47.667 C 200.270 47.667,200.333 47.778,200.333 48.250 C 200.333 48.722,200.397 48.833,200.667 48.833 C 200.935 48.833,201.000 48.944,201.000 49.399 C 201.000 49.748,201.096 50.001,201.250 50.060 C 201.387 50.113,201.500 50.262,201.500 50.392 C 201.500 50.522,201.650 50.667,201.833 50.715 C 202.079 50.779,202.167 50.942,202.167 51.333 C 202.167 51.724,202.255 51.888,202.500 51.952 C 202.684 52.000,202.833 52.179,202.833 52.353 C 202.833 52.556,202.951 52.667,203.167 52.667 C 203.437 52.667,203.500 52.778,203.500 53.250 C 203.500 53.657,203.575 53.833,203.750 53.833 C 203.889 53.833,204.000 53.981,204.000 54.167 C 204.000 54.389,204.111 54.500,204.333 54.500 C 204.603 54.500,204.667 54.611,204.667 55.083 C 204.667 55.556,204.730 55.667,205.000 55.667 C 205.258 55.667,205.333 55.778,205.333 56.161 C 205.333 56.484,205.448 56.717,205.667 56.833 C 205.850 56.931,206.000 57.159,206.000 57.339 C 206.000 57.519,206.112 57.667,206.250 57.667 C 206.387 57.667,206.500 57.811,206.500 57.986 C 206.500 58.483,206.680 58.833,206.934 58.833 C 207.062 58.833,207.167 58.983,207.167 59.167 C 207.167 59.389,207.278 59.500,207.500 59.500 C 207.768 59.500,207.833 59.611,207.833 60.064 C 207.833 60.488,207.916 60.649,208.167 60.715 C 208.350 60.763,208.500 60.922,208.500 61.068 C 208.500 61.214,208.612 61.333,208.750 61.333 C 208.925 61.333,209.000 61.509,209.000 61.917 C 209.000 62.383,209.065 62.500,209.323 62.500 C 209.577 62.500,209.658 62.635,209.698 63.125 L 209.750 63.750 210.625 63.800 L 211.500 63.851 211.500 63.175 C 211.500 62.611,211.555 62.500,211.833 62.500 C 212.017 62.500,212.167 62.396,212.167 62.268 C 212.167 62.140,212.275 61.994,212.407 61.943 C 212.540 61.892,212.698 61.584,212.759 61.259 C 212.823 60.918,212.969 60.667,213.102 60.667 C 213.229 60.667,213.333 60.517,213.333 60.333 C 213.333 60.150,213.438 60.000,213.566 60.000 C 213.820 60.000,214.000 59.650,214.000 59.153 C 214.000 58.944,214.116 58.833,214.333 58.833 C 214.601 58.833,214.667 58.722,214.667 58.269 C 214.667 57.846,214.750 57.684,215.000 57.618 C 215.183 57.570,215.333 57.412,215.333 57.266 C 215.333 57.120,215.446 57.000,215.583 57.000 C 215.764 57.000,215.833 56.815,215.833 56.333 C 215.833 55.778,215.889 55.667,216.167 55.667 C 216.350 55.667,216.500 55.559,216.500 55.428 C 216.500 55.297,216.650 55.142,216.833 55.083 C 217.081 55.005,217.167 54.831,217.167 54.405 C 217.167 54.020,217.245 53.833,217.405 53.833 C 217.537 53.833,217.692 53.683,217.750 53.500 C 217.808 53.317,217.963 53.167,218.095 53.167 C 218.256 53.167,218.333 52.979,218.333 52.583 C 218.333 52.111,218.397 52.000,218.667 52.000 C 218.891 52.000,219.000 51.889,219.000 51.660 C 219.000 51.473,219.150 51.158,219.333 50.962 C 219.517 50.765,219.667 50.505,219.667 50.385 C 219.667 50.265,219.779 50.167,219.917 50.167 C 220.097 50.167,220.167 49.981,220.167 49.500 C 220.167 48.944,220.222 48.833,220.500 48.833 C 220.683 48.833,220.833 48.726,220.833 48.595 C 220.833 48.463,220.983 48.308,221.167 48.250 C 221.415 48.171,221.500 47.998,221.500 47.572 C 221.500 47.111,221.565 47.000,221.833 47.000 C 222.056 47.000,222.167 46.889,222.167 46.667 C 222.167 46.481,222.278 46.333,222.417 46.333 C 222.591 46.333,222.667 46.157,222.667 45.750 C 222.667 45.278,222.730 45.167,223.000 45.167 C 223.222 45.167,223.333 45.056,223.333 44.833 C 223.333 44.650,223.438 44.500,223.566 44.500 C 223.817 44.500,224.000 44.151,224.000 43.672 C 224.000 43.507,224.150 43.333,224.333 43.285 C 224.589 43.218,224.667 43.058,224.667 42.599 C 224.667 42.179,224.741 42.000,224.916 42.000 C 225.135 42.000,225.170 44.020,225.208 58.792 L 225.250 75.583 229.875 75.628 L 234.500 75.672 234.500 50.169 L 234.500 24.667 229.917 24.667 C 225.954 24.667,225.333 24.701,225.333 24.917 C 225.333 25.056,225.185 25.167,225.000 25.167 C 224.778 25.167,224.667 25.278,224.667 25.500 C 224.667 25.722,224.556 25.833,224.333 25.833 C 224.111 25.833,224.000 25.944,224.000 26.167 C 224.000 26.350,223.896 26.500,223.768 26.500 C 223.513 26.500,223.333 26.850,223.333 27.347 C 223.333 27.523,223.222 27.667,223.085 27.667 C 222.925 27.667,222.800 27.902,222.731 28.333 C 222.666 28.735,222.533 29.000,222.395 29.000 C 222.270 29.000,222.167 29.150,222.167 29.333 C 222.167 29.556,222.056 29.667,221.833 29.667 C 221.563 29.667,221.500 29.778,221.500 30.250 C 221.500 30.722,221.437 30.833,221.167 30.833 C 220.927 30.833,220.833 30.944,220.833 31.230 C 220.833 31.448,220.721 31.719,220.583 31.833 C 220.446 31.947,220.333 32.182,220.333 32.354 C 220.333 32.556,220.215 32.667,220.000 32.667 C 219.722 32.667,219.667 32.778,219.667 33.333 C 219.667 33.889,219.611 34.000,219.333 34.000 C 219.111 34.000,219.000 34.111,219.000 34.333 C 219.000 34.517,218.896 34.667,218.768 34.667 C 218.513 34.667,218.333 35.017,218.333 35.514 C 218.333 35.689,218.221 35.833,218.083 35.833 C 217.909 35.833,217.833 36.009,217.833 36.417 C 217.833 36.889,217.770 37.000,217.500 37.000 C 217.285 37.000,217.167 37.111,217.167 37.314 C 217.167 37.488,217.018 37.667,216.833 37.715 C 216.578 37.782,216.500 37.942,216.500 38.401 C 216.500 38.889,216.438 39.000,216.167 39.000 C 215.952 39.000,215.833 39.111,215.833 39.313 C 215.833 39.485,215.721 39.719,215.583 39.833 C 215.446 39.947,215.333 40.219,215.333 40.437 C 215.333 40.722,215.240 40.833,215.000 40.833 C 214.730 40.833,214.667 40.944,214.667 41.417 C 214.667 41.889,214.603 42.000,214.333 42.000 C 214.111 42.000,214.000 42.111,214.000 42.333 C 214.000 42.517,213.896 42.667,213.769 42.667 C 213.637 42.667,213.491 42.912,213.431 43.234 C 213.372 43.546,213.214 43.844,213.079 43.895 C 212.927 43.954,212.833 44.214,212.833 44.578 C 212.833 45.056,212.770 45.167,212.500 45.167 C 212.285 45.167,212.167 45.278,212.167 45.481 C 212.167 45.654,212.018 45.833,211.833 45.882 C 211.599 45.943,211.500 46.110,211.499 46.443 C 211.498 46.774,211.382 46.970,211.114 47.094 C 210.615 47.325,210.333 47.221,210.333 46.804 C 210.333 46.609,210.194 46.432,210.000 46.382 C 209.761 46.319,209.667 46.154,209.667 45.798 C 209.667 45.442,209.572 45.278,209.333 45.215 C 209.149 45.167,209.000 44.988,209.000 44.814 C 209.000 44.611,208.882 44.500,208.667 44.500 C 208.397 44.500,208.333 44.389,208.333 43.917 C 208.333 43.530,208.255 43.333,208.102 43.333 C 207.971 43.333,207.824 43.088,207.764 42.766 C 207.705 42.454,207.547 42.156,207.412 42.105 C 207.277 42.053,207.167 41.896,207.167 41.755 C 207.167 41.611,207.022 41.500,206.833 41.500 C 206.556 41.500,206.500 41.389,206.500 40.833 C 206.500 40.278,206.444 40.167,206.167 40.167 C 205.944 40.167,205.833 40.056,205.833 39.833 C 205.833 39.648,205.722 39.500,205.583 39.500 C 205.409 39.500,205.333 39.324,205.333 38.917 C 205.333 38.444,205.270 38.333,205.000 38.333 C 204.731 38.333,204.667 38.222,204.667 37.761 C 204.667 37.336,204.581 37.162,204.333 37.083 C 204.150 37.025,204.000 36.870,204.000 36.739 C 204.000 36.607,203.887 36.500,203.750 36.500 C 203.597 36.500,203.500 36.344,203.500 36.097 C 203.500 35.534,203.336 35.167,203.084 35.167 C 202.967 35.167,202.821 34.904,202.761 34.583 C 202.695 34.234,202.554 34.000,202.409 34.000 C 202.276 34.000,202.167 33.850,202.167 33.667 C 202.167 33.444,202.056 33.333,201.833 33.333 C 201.563 33.333,201.500 33.222,201.500 32.750 C 201.500 32.343,201.425 32.167,201.250 32.167 C 201.111 32.167,201.000 32.019,201.000 31.833 C 201.000 31.611,200.889 31.500,200.667 31.500 C 200.395 31.500,200.333 31.389,200.333 30.901 C 200.333 30.442,200.255 30.282,200.000 30.215 C 199.750 30.149,199.667 29.988,199.667 29.564 C 199.667 29.111,199.601 29.000,199.333 29.000 C 199.111 29.000,199.000 28.889,199.000 28.667 C 199.000 28.481,198.889 28.333,198.750 28.333 C 198.575 28.333,198.500 28.157,198.500 27.750 C 198.500 27.278,198.437 27.167,198.167 27.167 C 197.922 27.167,197.833 27.056,197.833 26.748 C 197.833 26.518,197.683 26.202,197.500 26.045 C 197.317 25.888,197.167 25.626,197.167 25.463 C 197.167 25.278,197.042 25.167,196.833 25.167 C 196.648 25.167,196.500 25.056,196.500 24.917 C 196.500 24.478,187.075 24.548,186.839 24.989 M61.333 36.750 C 61.333 36.930,61.150 37.000,60.680 37.000 C 59.866 37.000,59.500 37.135,59.500 37.434 C 59.500 37.583,59.314 37.667,58.984 37.667 C 58.609 37.667,58.445 37.757,58.382 38.000 C 58.333 38.184,58.154 38.333,57.981 38.333 C 57.778 38.333,57.667 38.451,57.667 38.667 C 57.667 38.889,57.556 39.000,57.333 39.000 C 57.148 39.000,57.000 39.111,57.000 39.250 C 57.000 39.389,56.852 39.500,56.667 39.500 C 56.444 39.500,56.333 39.611,56.333 39.833 C 56.333 40.019,56.222 40.167,56.083 40.167 C 55.944 40.167,55.833 40.315,55.833 40.500 C 55.833 40.722,55.722 40.833,55.500 40.833 C 55.190 40.833,55.166 40.721,55.164 39.208 C 55.160 36.895,55.596 37.092,50.340 37.034 L 45.833 36.985 45.833 56.326 L 45.833 75.667 50.500 75.667 L 55.167 75.667 55.167 63.518 C 55.167 53.023,55.200 51.356,55.410 51.276 C 55.555 51.220,55.698 50.842,55.765 50.341 C 55.837 49.794,55.956 49.500,56.105 49.500 C 56.255 49.500,56.333 49.300,56.333 48.917 C 56.333 48.494,56.407 48.333,56.599 48.333 C 56.745 48.333,56.904 48.183,56.952 48.000 C 57.000 47.817,57.150 47.667,57.285 47.667 C 57.420 47.667,57.570 47.517,57.618 47.333 C 57.666 47.150,57.809 47.000,57.936 47.000 C 58.063 47.000,58.167 46.850,58.167 46.667 C 58.167 46.396,58.278 46.333,58.755 46.333 C 59.125 46.333,59.380 46.240,59.440 46.083 C 59.497 45.935,59.749 45.832,60.059 45.831 C 60.834 45.828,61.333 45.658,61.333 45.397 C 61.333 45.053,62.494 45.095,62.753 45.449 C 62.900 45.650,63.278 45.752,64.063 45.802 C 64.858 45.852,65.167 45.937,65.167 46.103 C 65.167 46.230,65.317 46.333,65.500 46.333 C 65.722 46.333,65.833 46.444,65.833 46.667 C 65.833 46.937,65.944 47.000,66.417 47.000 C 66.968 47.000,67.000 47.031,67.000 47.564 C 67.000 47.988,67.083 48.149,67.333 48.215 C 67.577 48.279,67.667 48.442,67.667 48.823 C 67.667 49.132,67.768 49.383,67.917 49.440 C 68.093 49.507,68.167 49.782,68.167 50.367 C 68.167 51.058,68.223 51.213,68.500 51.285 C 68.829 51.371,68.833 51.512,68.833 63.519 L 68.833 75.667 73.500 75.667 L 78.167 75.667 78.167 63.519 C 78.167 51.512,78.171 51.371,78.500 51.285 C 78.778 51.212,78.833 51.058,78.833 50.349 C 78.833 49.736,78.898 49.500,79.065 49.500 C 79.196 49.500,79.342 49.255,79.403 48.933 C 79.461 48.621,79.620 48.323,79.755 48.271 C 79.890 48.220,80.000 48.062,80.000 47.922 C 80.000 47.782,80.120 47.667,80.266 47.667 C 80.412 47.667,80.570 47.517,80.618 47.333 C 80.667 47.149,80.846 47.000,81.019 47.000 C 81.222 47.000,81.333 46.882,81.333 46.667 C 81.333 46.427,81.444 46.333,81.730 46.333 C 81.948 46.333,82.219 46.221,82.333 46.083 C 82.447 45.946,82.775 45.832,83.062 45.831 C 83.835 45.828,84.333 45.658,84.333 45.397 C 84.333 45.049,85.657 45.090,85.918 45.446 C 86.057 45.637,86.444 45.749,87.144 45.799 C 87.867 45.852,88.167 45.941,88.167 46.103 C 88.167 46.255,88.365 46.333,88.750 46.333 C 89.173 46.333,89.333 46.407,89.333 46.599 C 89.333 46.745,89.483 46.904,89.667 46.952 C 89.851 47.000,90.000 47.179,90.000 47.353 C 90.000 47.556,90.118 47.667,90.333 47.667 C 90.603 47.667,90.667 47.778,90.667 48.250 C 90.667 48.722,90.730 48.833,91.000 48.833 C 91.301 48.833,91.333 48.944,91.333 49.992 C 91.333 50.846,91.399 51.187,91.582 51.289 C 91.799 51.411,91.837 52.998,91.874 63.506 L 91.917 75.583 96.542 75.628 L 101.167 75.672 101.167 61.348 C 101.167 48.838,101.135 46.992,100.917 46.774 C 100.753 46.610,100.667 46.197,100.667 45.580 C 100.667 44.776,100.617 44.623,100.333 44.548 C 100.072 44.480,100.000 44.321,100.000 43.812 C 100.000 43.370,99.894 43.073,99.667 42.878 C 99.483 42.721,99.333 42.459,99.333 42.296 C 99.333 42.133,99.224 42.000,99.091 42.000 C 98.946 42.000,98.805 41.766,98.739 41.417 C 98.676 41.083,98.531 40.833,98.398 40.833 C 98.271 40.833,98.167 40.683,98.167 40.500 C 98.167 40.278,98.056 40.167,97.833 40.167 C 97.611 40.167,97.500 40.056,97.500 39.833 C 97.500 39.611,97.389 39.500,97.167 39.500 C 96.981 39.500,96.833 39.389,96.833 39.250 C 96.833 39.112,96.726 39.000,96.595 39.000 C 96.463 39.000,96.308 38.850,96.250 38.667 C 96.171 38.419,95.998 38.333,95.572 38.333 C 95.111 38.333,95.000 38.269,95.000 38.000 C 95.000 37.732,94.889 37.667,94.436 37.667 C 94.012 37.667,93.851 37.584,93.785 37.333 C 93.719 37.080,93.558 37.000,93.117 37.000 C 92.754 37.000,92.500 36.906,92.440 36.750 C 92.358 36.537,91.717 36.500,88.089 36.500 C 84.417 36.500,83.833 36.534,83.833 36.750 C 83.833 36.940,83.628 37.000,82.984 37.000 C 82.276 37.000,82.121 37.055,82.048 37.333 C 81.982 37.586,81.821 37.667,81.382 37.667 C 80.942 37.667,80.781 37.747,80.715 38.000 C 80.667 38.184,80.488 38.333,80.314 38.333 C 80.111 38.333,80.000 38.451,80.000 38.667 C 80.000 38.937,79.889 39.000,79.417 39.000 C 79.009 39.000,78.833 39.075,78.833 39.250 C 78.833 39.387,78.714 39.500,78.568 39.500 C 78.422 39.500,78.263 39.650,78.215 39.833 C 78.167 40.017,78.017 40.167,77.882 40.167 C 77.746 40.167,77.596 40.317,77.548 40.500 C 77.500 40.683,77.357 40.833,77.231 40.833 C 77.104 40.833,77.000 40.983,77.000 41.167 C 77.000 41.389,76.889 41.500,76.667 41.500 C 76.483 41.500,76.333 41.594,76.333 41.710 C 76.333 41.825,76.183 42.013,76.000 42.128 C 75.700 42.315,75.667 42.294,75.667 41.918 C 75.667 41.611,75.578 41.500,75.333 41.500 C 75.073 41.500,75.000 41.389,75.000 40.994 C 75.000 40.639,74.827 40.316,74.417 39.906 C 74.096 39.585,73.833 39.250,73.833 39.161 C 73.833 39.073,73.576 39.000,73.261 39.000 C 72.836 39.000,72.662 38.915,72.583 38.667 C 72.525 38.483,72.379 38.333,72.258 38.333 C 72.138 38.333,72.000 38.183,71.952 38.000 C 71.885 37.745,71.724 37.667,71.266 37.667 C 70.778 37.667,70.667 37.605,70.667 37.333 C 70.667 37.057,70.556 37.000,70.018 37.000 C 69.595 37.000,69.336 36.913,69.273 36.750 C 69.192 36.538,68.588 36.500,65.255 36.500 C 61.880 36.500,61.333 36.535,61.333 36.750 M156.727 36.750 C 156.659 36.926,156.385 37.000,155.800 37.000 C 155.109 37.000,154.954 37.056,154.882 37.333 C 154.809 37.610,154.654 37.667,153.965 37.667 C 153.276 37.667,153.121 37.723,153.048 38.000 C 152.986 38.239,152.821 38.333,152.465 38.333 C 152.109 38.333,151.944 38.428,151.882 38.667 C 151.833 38.851,151.654 39.000,151.481 39.000 C 151.308 39.000,151.167 39.112,151.167 39.250 C 151.167 39.387,151.028 39.500,150.859 39.500 C 150.690 39.500,150.416 39.650,150.250 39.833 C 150.084 40.017,149.803 40.167,149.625 40.167 C 149.442 40.167,149.264 40.311,149.215 40.500 C 149.167 40.683,149.024 40.833,148.897 40.833 C 148.770 40.833,148.667 40.983,148.667 41.167 C 148.667 41.389,148.556 41.500,148.333 41.500 C 148.148 41.500,148.000 41.611,148.000 41.750 C 148.000 41.887,147.886 42.000,147.746 42.000 C 147.606 42.000,147.420 42.188,147.333 42.417 C 147.246 42.646,147.104 42.833,147.017 42.833 C 146.931 42.833,146.812 43.052,146.753 43.319 C 146.694 43.587,146.538 43.847,146.406 43.898 C 146.275 43.948,146.167 44.096,146.167 44.225 C 146.167 44.355,146.017 44.500,145.833 44.548 C 145.578 44.615,145.500 44.776,145.500 45.234 C 145.500 45.722,145.438 45.833,145.167 45.833 C 144.897 45.833,144.833 45.944,144.833 46.417 C 144.833 46.822,144.758 47.000,144.585 47.000 C 144.425 47.000,144.300 47.233,144.232 47.656 C 144.175 48.017,144.024 48.353,143.897 48.401 C 143.731 48.465,143.667 48.818,143.667 49.661 C 143.667 50.722,143.635 50.833,143.333 50.833 C 143.020 50.833,143.000 50.944,143.000 52.690 C 143.000 54.263,142.956 54.579,142.709 54.759 C 142.292 55.065,142.291 57.158,142.708 57.620 C 142.951 57.889,143.000 58.270,143.000 59.904 C 143.000 61.724,143.024 61.871,143.333 61.952 C 143.614 62.025,143.667 62.179,143.667 62.924 C 143.667 63.489,143.757 63.900,143.917 64.060 C 144.054 64.197,144.167 64.496,144.167 64.724 C 144.167 65.311,144.331 65.667,144.601 65.667 C 144.757 65.667,144.833 65.865,144.833 66.266 C 144.833 66.724,144.911 66.885,145.167 66.952 C 145.417 67.017,145.500 67.179,145.500 67.603 C 145.500 68.056,145.566 68.167,145.833 68.167 C 146.056 68.167,146.167 68.278,146.167 68.500 C 146.167 68.683,146.276 68.833,146.409 68.833 C 146.554 68.833,146.695 69.067,146.761 69.417 C 146.824 69.751,146.969 70.000,147.102 70.000 C 147.229 70.000,147.333 70.150,147.333 70.333 C 147.333 70.556,147.444 70.667,147.667 70.667 C 147.889 70.667,148.000 70.778,148.000 71.000 C 148.000 71.222,148.111 71.333,148.333 71.333 C 148.522 71.333,148.667 71.444,148.667 71.589 C 148.667 71.729,148.779 71.887,148.917 71.940 C 149.054 71.992,149.167 72.140,149.167 72.268 C 149.167 72.396,149.308 72.500,149.481 72.500 C 149.654 72.500,149.833 72.649,149.882 72.833 C 149.948 73.089,150.109 73.167,150.568 73.167 C 151.056 73.167,151.167 73.229,151.167 73.500 C 151.167 73.683,151.271 73.833,151.399 73.833 C 151.527 73.833,151.674 73.946,151.727 74.083 C 151.780 74.221,151.969 74.333,152.148 74.333 C 152.649 74.333,153.000 74.512,153.000 74.768 C 153.000 74.921,153.194 75.000,153.572 75.000 C 153.998 75.000,154.171 75.085,154.250 75.333 C 154.339 75.613,154.502 75.667,155.261 75.667 C 155.924 75.667,156.167 75.729,156.167 75.899 C 156.167 76.262,156.558 76.333,158.542 76.333 C 159.964 76.333,160.455 76.392,160.671 76.587 C 160.949 76.839,161.500 76.769,161.500 76.482 C 161.500 76.400,162.394 76.333,163.486 76.333 C 165.607 76.333,166.000 76.265,166.000 75.899 C 166.000 75.739,166.208 75.667,166.667 75.667 C 167.222 75.667,167.333 75.611,167.333 75.333 C 167.333 75.063,167.444 75.000,167.917 75.000 C 168.304 75.000,168.500 74.922,168.500 74.768 C 168.500 74.499,168.855 74.333,169.430 74.333 C 169.677 74.333,169.833 74.237,169.833 74.083 C 169.833 73.946,169.946 73.833,170.083 73.833 C 170.222 73.833,170.333 73.685,170.333 73.500 C 170.333 73.278,170.444 73.167,170.667 73.167 C 170.889 73.167,171.000 73.056,171.000 72.833 C 171.000 72.611,171.111 72.500,171.333 72.500 C 171.652 72.500,171.667 72.611,171.667 75.058 C 171.667 77.403,171.639 77.640,171.333 77.917 C 171.079 78.147,171.000 78.430,171.000 79.109 C 171.000 79.765,170.938 80.000,170.765 80.000 C 170.620 80.000,170.486 80.257,170.417 80.667 C 170.347 81.077,170.213 81.333,170.069 81.333 C 169.911 81.333,169.833 81.525,169.833 81.917 C 169.833 82.389,169.770 82.500,169.500 82.500 C 169.278 82.500,169.167 82.611,169.167 82.833 C 169.167 83.056,169.056 83.167,168.833 83.167 C 168.611 83.167,168.500 83.278,168.500 83.500 C 168.500 83.770,168.389 83.833,167.917 83.833 C 167.509 83.833,167.333 83.909,167.333 84.083 C 167.333 84.222,167.185 84.333,167.000 84.333 C 166.817 84.333,166.517 84.483,166.333 84.667 C 166.087 84.913,165.778 85.000,165.151 85.000 C 164.442 85.000,164.288 85.055,164.215 85.333 C 164.133 85.648,163.988 85.667,161.667 85.667 C 159.346 85.667,159.201 85.648,159.118 85.333 C 159.046 85.055,158.891 85.000,158.182 85.000 C 157.444 85.000,157.333 84.956,157.333 84.667 C 157.333 84.444,157.222 84.333,157.000 84.333 C 156.815 84.333,156.667 84.222,156.667 84.083 C 156.667 83.909,156.491 83.833,156.083 83.833 C 155.611 83.833,155.500 83.770,155.500 83.500 C 155.500 83.278,155.389 83.167,155.167 83.167 C 154.944 83.167,154.833 83.056,154.833 82.833 C 154.833 82.611,154.722 82.500,154.500 82.500 C 154.230 82.500,154.167 82.389,154.167 81.917 C 154.167 81.444,154.103 81.333,153.833 81.333 C 153.571 81.333,153.500 81.222,153.500 80.815 C 153.500 79.861,152.024 78.975,151.727 79.750 C 151.671 79.895,151.422 80.000,151.133 80.000 C 150.776 80.000,150.611 80.094,150.548 80.333 C 150.500 80.518,150.321 80.667,150.147 80.667 C 149.944 80.667,149.833 80.785,149.833 81.000 C 149.833 81.270,149.722 81.333,149.250 81.333 C 148.843 81.333,148.667 81.409,148.667 81.583 C 148.667 81.759,148.489 81.833,148.068 81.833 C 147.609 81.833,147.448 81.911,147.382 82.167 C 147.319 82.406,147.154 82.500,146.798 82.500 C 146.442 82.500,146.278 82.594,146.215 82.833 C 146.167 83.018,145.988 83.167,145.814 83.167 C 145.614 83.167,145.500 83.284,145.500 83.490 C 145.500 83.743,145.365 83.824,144.875 83.865 C 144.360 83.908,144.240 83.987,144.193 84.318 C 144.092 85.037,144.336 86.167,144.594 86.167 C 144.725 86.167,144.833 86.317,144.833 86.500 C 144.833 86.722,144.944 86.833,145.167 86.833 C 145.435 86.833,145.500 86.944,145.500 87.405 C 145.500 87.831,145.585 88.005,145.833 88.083 C 146.017 88.142,146.167 88.297,146.167 88.428 C 146.167 88.559,146.279 88.667,146.417 88.667 C 146.556 88.667,146.667 88.815,146.667 89.000 C 146.667 89.222,146.778 89.333,147.000 89.333 C 147.222 89.333,147.333 89.444,147.333 89.667 C 147.333 89.889,147.444 90.000,147.667 90.000 C 147.889 90.000,148.000 90.111,148.000 90.333 C 148.000 90.556,148.111 90.667,148.333 90.667 C 148.519 90.667,148.667 90.778,148.667 90.917 C 148.667 91.054,148.770 91.167,148.897 91.167 C 149.024 91.167,149.167 91.317,149.215 91.500 C 149.282 91.755,149.442 91.833,149.901 91.833 C 150.389 91.833,150.500 91.895,150.500 92.167 C 150.500 92.389,150.611 92.500,150.833 92.500 C 151.017 92.500,151.167 92.604,151.167 92.731 C 151.167 92.863,151.412 93.009,151.734 93.069 C 152.046 93.128,152.344 93.286,152.395 93.421 C 152.461 93.592,152.743 93.667,153.328 93.667 C 154.056 93.667,154.167 93.711,154.167 94.000 C 154.167 94.296,154.278 94.333,155.167 94.333 C 156.056 94.333,156.167 94.370,156.167 94.667 C 156.167 94.994,156.278 95.000,161.932 95.000 C 167.558 95.000,167.700 94.992,167.785 94.667 C 167.859 94.385,168.012 94.333,168.785 94.333 C 169.558 94.333,169.711 94.282,169.785 94.000 C 169.857 93.724,170.012 93.667,170.691 93.667 C 171.266 93.667,171.539 93.592,171.606 93.417 C 171.659 93.279,171.797 93.167,171.912 93.167 C 172.027 93.167,172.312 93.017,172.545 92.833 C 172.779 92.650,173.089 92.500,173.235 92.500 C 173.389 92.500,173.500 92.360,173.500 92.167 C 173.500 91.944,173.611 91.833,173.833 91.833 C 174.056 91.833,174.167 91.722,174.167 91.500 C 174.167 91.230,174.278 91.167,174.750 91.167 C 175.145 91.167,175.333 91.090,175.333 90.928 C 175.333 90.797,175.483 90.642,175.667 90.583 C 175.850 90.525,176.000 90.379,176.000 90.258 C 176.000 90.138,176.150 90.000,176.333 89.952 C 176.589 89.885,176.667 89.724,176.667 89.266 C 176.667 88.778,176.729 88.667,177.000 88.667 C 177.185 88.667,177.333 88.556,177.333 88.417 C 177.333 88.279,177.446 88.167,177.583 88.167 C 177.721 88.167,177.833 88.025,177.833 87.853 C 177.833 87.679,177.982 87.500,178.167 87.452 C 178.422 87.385,178.500 87.224,178.500 86.766 C 178.500 86.278,178.562 86.167,178.833 86.167 C 179.103 86.167,179.167 86.056,179.167 85.583 C 179.167 85.176,179.242 85.000,179.417 85.000 C 179.608 85.000,179.667 84.789,179.667 84.103 C 179.667 83.346,179.719 83.192,180.000 83.118 C 180.293 83.042,180.333 82.891,180.333 81.868 C 180.333 80.846,180.374 80.695,180.667 80.618 C 180.979 80.537,181.000 80.391,181.000 78.349 C 181.000 76.562,181.043 76.167,181.240 76.167 C 181.395 76.167,181.515 75.917,181.580 75.458 C 181.734 74.377,181.603 37.381,181.445 37.222 C 181.236 37.014,172.649 36.952,172.114 37.155 C 171.677 37.321,171.667 37.358,171.667 38.746 C 171.667 40.056,171.641 40.167,171.333 40.167 C 171.111 40.167,171.000 40.056,171.000 39.833 C 171.000 39.611,170.889 39.500,170.667 39.500 C 170.481 39.500,170.333 39.389,170.333 39.250 C 170.333 39.112,170.230 39.000,170.103 39.000 C 169.976 39.000,169.833 38.850,169.785 38.667 C 169.718 38.411,169.558 38.333,169.099 38.333 C 168.611 38.333,168.500 38.271,168.500 38.000 C 168.500 37.732,168.389 37.667,167.936 37.667 C 167.512 37.667,167.351 37.584,167.285 37.333 C 167.211 37.050,167.058 37.000,166.266 37.000 C 165.548 37.000,165.333 36.942,165.333 36.750 C 165.333 36.534,164.749 36.500,161.078 36.500 C 157.449 36.500,156.809 36.537,156.727 36.750 M290.894 36.750 C 290.824 36.930,290.542 37.000,289.883 37.000 C 289.109 37.000,288.955 37.051,288.882 37.333 C 288.816 37.586,288.654 37.667,288.215 37.667 C 287.776 37.667,287.614 37.747,287.548 38.000 C 287.483 38.250,287.321 38.333,286.897 38.333 C 286.444 38.333,286.333 38.399,286.333 38.667 C 286.333 38.935,286.222 39.000,285.768 39.000 C 285.419 39.000,285.166 39.096,285.106 39.250 C 285.054 39.387,284.896 39.500,284.755 39.500 C 284.611 39.500,284.500 39.645,284.500 39.833 C 284.500 40.056,284.389 40.167,284.167 40.167 C 283.944 40.167,283.833 40.278,283.833 40.500 C 283.833 40.722,283.722 40.833,283.500 40.833 C 283.317 40.833,283.167 40.941,283.167 41.072 C 283.167 41.203,283.017 41.358,282.833 41.417 C 282.650 41.475,282.500 41.630,282.500 41.761 C 282.500 41.893,282.387 42.000,282.250 42.000 C 282.111 42.000,282.000 42.148,282.000 42.333 C 282.000 42.556,281.889 42.667,281.667 42.667 C 281.444 42.667,281.333 42.778,281.333 43.000 C 281.333 43.222,281.222 43.333,281.000 43.333 C 280.730 43.333,280.667 43.444,280.667 43.917 C 280.667 44.389,280.603 44.500,280.333 44.500 C 280.111 44.500,280.000 44.611,280.000 44.833 C 280.000 45.019,279.889 45.167,279.750 45.167 C 279.577 45.167,279.500 45.340,279.500 45.731 C 279.500 46.154,279.417 46.316,279.167 46.382 C 278.914 46.448,278.833 46.609,278.833 47.048 C 278.833 47.488,278.753 47.649,278.500 47.715 C 278.222 47.788,278.167 47.942,278.167 48.651 C 278.167 49.260,278.102 49.500,277.938 49.500 C 277.677 49.500,277.500 50.209,277.500 51.253 C 277.500 51.732,277.418 51.996,277.250 52.060 C 277.037 52.142,277.000 52.762,277.000 56.224 C 277.000 59.637,277.040 60.326,277.250 60.500 C 277.401 60.625,277.500 60.990,277.500 61.416 C 277.500 62.458,277.677 63.167,277.938 63.167 C 278.102 63.167,278.167 63.406,278.167 64.016 C 278.167 64.724,278.222 64.879,278.500 64.952 C 278.761 65.020,278.833 65.179,278.833 65.686 C 278.833 66.222,278.891 66.333,279.167 66.333 C 279.437 66.333,279.500 66.444,279.500 66.917 C 279.500 67.324,279.575 67.500,279.750 67.500 C 279.889 67.500,280.000 67.648,280.000 67.833 C 280.000 68.056,280.111 68.167,280.333 68.167 C 280.605 68.167,280.667 68.278,280.667 68.766 C 280.667 69.224,280.745 69.385,281.000 69.452 C 281.183 69.500,281.333 69.643,281.333 69.769 C 281.333 69.896,281.483 70.000,281.667 70.000 C 281.889 70.000,282.000 70.111,282.000 70.333 C 282.000 70.519,282.111 70.667,282.250 70.667 C 282.389 70.667,282.500 70.815,282.500 71.000 C 282.500 71.222,282.611 71.333,282.833 71.333 C 283.056 71.333,283.167 71.444,283.167 71.667 C 283.167 71.889,283.278 72.000,283.500 72.000 C 283.685 72.000,283.833 72.111,283.833 72.250 C 283.833 72.389,283.981 72.500,284.167 72.500 C 284.389 72.500,284.500 72.611,284.500 72.833 C 284.500 73.017,284.604 73.167,284.731 73.167 C 284.857 73.167,285.000 73.317,285.048 73.500 C 285.115 73.755,285.276 73.833,285.734 73.833 C 286.156 73.833,286.333 73.907,286.333 74.083 C 286.333 74.221,286.477 74.333,286.653 74.333 C 287.150 74.333,287.500 74.513,287.500 74.768 C 287.500 74.928,287.708 75.000,288.167 75.000 C 288.722 75.000,288.833 75.056,288.833 75.333 C 288.833 75.625,288.944 75.667,289.731 75.667 C 290.488 75.667,290.641 75.719,290.715 76.000 C 290.797 76.312,290.942 76.333,292.984 76.333 C 294.185 76.333,295.167 76.400,295.167 76.482 C 295.167 76.769,295.718 76.839,295.996 76.587 C 296.210 76.393,296.697 76.333,298.070 76.333 C 299.724 76.333,299.871 76.307,299.952 76.000 C 300.025 75.719,300.179 75.667,300.936 75.667 C 301.722 75.667,301.833 75.625,301.833 75.333 C 301.833 75.062,301.944 75.000,302.432 75.000 C 302.891 75.000,303.052 74.922,303.118 74.667 C 303.166 74.483,303.309 74.333,303.436 74.333 C 303.563 74.333,303.667 74.221,303.667 74.083 C 303.667 73.907,303.844 73.833,304.266 73.833 C 304.715 73.833,304.885 73.754,304.948 73.515 C 304.993 73.341,305.174 73.160,305.349 73.114 C 305.524 73.069,305.667 72.912,305.667 72.766 C 305.667 72.620,305.779 72.500,305.917 72.500 C 306.118 72.500,306.167 72.757,306.167 73.813 C 306.167 74.777,306.100 75.181,305.917 75.333 C 305.722 75.495,305.667 75.953,305.667 77.418 C 305.667 79.154,305.642 79.301,305.333 79.382 C 305.078 79.448,305.000 79.609,305.000 80.068 C 305.000 80.469,304.923 80.667,304.768 80.667 C 304.513 80.667,304.333 81.017,304.333 81.514 C 304.333 81.689,304.226 81.833,304.095 81.833 C 303.963 81.833,303.808 81.983,303.750 82.167 C 303.692 82.350,303.537 82.500,303.405 82.500 C 303.274 82.500,303.167 82.650,303.167 82.833 C 303.167 83.056,303.056 83.167,302.833 83.167 C 302.611 83.167,302.500 83.278,302.500 83.500 C 302.500 83.722,302.389 83.833,302.167 83.833 C 301.981 83.833,301.833 83.944,301.833 84.083 C 301.833 84.252,301.665 84.333,301.318 84.333 C 300.942 84.333,300.778 84.424,300.715 84.667 C 300.641 84.948,300.488 85.000,299.731 85.000 C 298.944 85.000,298.833 85.041,298.833 85.333 C 298.833 85.652,298.722 85.667,296.333 85.667 C 294.056 85.667,293.804 85.637,293.500 85.333 C 293.281 85.114,292.944 85.000,292.519 85.000 C 292.012 85.000,291.853 84.928,291.785 84.667 C 291.722 84.424,291.558 84.333,291.182 84.333 C 290.835 84.333,290.667 84.252,290.667 84.083 C 290.667 83.944,290.519 83.833,290.333 83.833 C 290.111 83.833,290.000 83.722,290.000 83.500 C 290.000 83.278,289.889 83.167,289.667 83.167 C 289.444 83.167,289.333 83.056,289.333 82.833 C 289.333 82.650,289.230 82.500,289.103 82.500 C 288.976 82.500,288.833 82.350,288.785 82.167 C 288.737 81.983,288.578 81.833,288.432 81.833 C 288.246 81.833,288.167 81.678,288.167 81.318 C 288.167 80.942,288.076 80.778,287.833 80.715 C 287.583 80.649,287.500 80.488,287.500 80.064 L 287.500 79.500 286.675 79.500 C 286.168 79.500,285.799 79.585,285.717 79.721 C 285.643 79.842,285.452 79.990,285.292 80.049 C 285.131 80.108,285.000 80.271,285.000 80.411 C 285.000 80.592,284.829 80.667,284.417 80.667 C 283.944 80.667,283.833 80.730,283.833 81.000 C 283.833 81.268,283.722 81.333,283.268 81.333 C 282.919 81.333,282.666 81.429,282.606 81.583 C 282.554 81.721,282.396 81.833,282.255 81.833 C 282.111 81.833,282.000 81.978,282.000 82.167 C 282.000 82.444,281.889 82.500,281.333 82.500 C 280.778 82.500,280.667 82.556,280.667 82.833 C 280.667 83.103,280.556 83.167,280.083 83.167 C 279.617 83.167,279.500 83.232,279.500 83.490 C 279.500 83.743,279.365 83.824,278.875 83.865 C 278.105 83.929,277.776 85.429,278.490 85.616 C 278.679 85.665,278.833 85.809,278.833 85.936 C 278.833 86.063,278.983 86.167,279.167 86.167 C 279.444 86.167,279.500 86.278,279.500 86.833 C 279.500 87.290,279.573 87.500,279.731 87.500 C 279.857 87.500,280.000 87.650,280.048 87.833 C 280.096 88.017,280.255 88.167,280.401 88.167 C 280.547 88.167,280.667 88.279,280.667 88.417 C 280.667 88.554,280.817 88.817,281.000 89.000 C 281.183 89.183,281.333 89.453,281.333 89.599 C 281.333 89.745,281.483 89.904,281.667 89.952 C 281.850 90.000,282.000 90.139,282.000 90.262 C 282.000 90.385,282.262 90.534,282.583 90.594 C 282.917 90.657,283.167 90.803,283.167 90.935 C 283.167 91.063,283.317 91.167,283.500 91.167 C 283.722 91.167,283.833 91.278,283.833 91.500 C 283.833 91.722,283.944 91.833,284.167 91.833 C 284.389 91.833,284.500 91.944,284.500 92.167 C 284.500 92.434,284.611 92.500,285.064 92.500 C 285.488 92.500,285.649 92.583,285.715 92.833 C 285.782 93.089,285.942 93.167,286.401 93.167 C 286.822 93.167,287.000 93.241,287.000 93.417 C 287.000 93.591,287.176 93.667,287.583 93.667 C 288.056 93.667,288.167 93.730,288.167 94.000 C 288.167 94.291,288.278 94.333,289.046 94.333 C 289.720 94.333,289.993 94.411,290.211 94.667 C 290.486 94.988,290.703 95.000,296.165 95.000 C 301.722 95.000,301.833 94.993,301.833 94.667 C 301.833 94.365,301.944 94.333,303.016 94.333 C 304.058 94.333,304.208 94.294,304.285 94.000 C 304.351 93.749,304.512 93.667,304.941 93.667 C 305.293 93.667,305.547 93.571,305.606 93.417 C 305.662 93.272,305.911 93.167,306.200 93.167 C 306.558 93.167,306.722 93.073,306.785 92.833 C 306.848 92.594,307.012 92.500,307.368 92.500 C 307.724 92.500,307.889 92.406,307.952 92.167 C 308.000 91.982,308.179 91.833,308.353 91.833 C 308.556 91.833,308.667 91.715,308.667 91.500 C 308.667 91.278,308.778 91.167,309.000 91.167 C 309.185 91.167,309.333 91.056,309.333 90.917 C 309.333 90.779,309.453 90.667,309.599 90.667 C 309.745 90.667,309.904 90.517,309.952 90.333 C 310.000 90.150,310.150 90.000,310.285 90.000 C 310.420 90.000,310.570 89.850,310.618 89.667 C 310.666 89.483,310.809 89.333,310.936 89.333 C 311.063 89.333,311.167 89.183,311.167 89.000 C 311.167 88.778,311.278 88.667,311.500 88.667 C 311.770 88.667,311.833 88.556,311.833 88.083 C 311.833 87.611,311.897 87.500,312.167 87.500 C 312.389 87.500,312.500 87.389,312.500 87.167 C 312.500 86.981,312.611 86.833,312.750 86.833 C 312.923 86.833,313.000 86.660,313.000 86.269 C 313.000 85.846,313.083 85.684,313.333 85.618 C 313.576 85.555,313.667 85.391,313.667 85.016 C 313.667 84.722,313.810 84.356,314.000 84.167 C 314.222 83.944,314.333 83.611,314.333 83.167 C 314.333 82.722,314.444 82.389,314.667 82.167 C 314.941 81.893,315.000 81.611,315.000 80.583 C 315.000 79.583,315.050 79.333,315.250 79.333 C 315.471 79.333,315.500 76.870,315.500 58.164 L 315.500 36.995 310.875 37.039 L 306.250 37.083 306.202 38.625 C 306.164 39.845,306.103 40.167,305.910 40.167 C 305.776 40.167,305.667 40.047,305.667 39.901 C 305.667 39.755,305.517 39.596,305.333 39.548 C 305.150 39.500,305.000 39.357,305.000 39.231 C 305.000 39.086,304.815 39.000,304.501 39.000 C 304.183 39.000,303.927 38.879,303.795 38.667 C 303.680 38.483,303.501 38.333,303.396 38.333 C 303.291 38.333,303.166 38.183,303.118 38.000 C 303.052 37.745,302.891 37.667,302.432 37.667 C 302.031 37.667,301.833 37.590,301.833 37.434 C 301.833 37.137,301.468 37.000,300.671 37.000 C 300.260 37.000,300.002 36.912,299.940 36.750 C 299.858 36.536,299.198 36.500,295.417 36.500 C 291.635 36.500,290.976 36.536,290.894 36.750 M105.780 37.108 C 105.518 37.371,105.652 63.005,105.917 63.106 C 106.093 63.174,106.167 63.448,106.167 64.033 C 106.167 64.724,106.223 64.879,106.500 64.952 C 106.781 65.025,106.833 65.179,106.833 65.925 C 106.833 66.664,106.888 66.828,107.167 66.917 C 107.415 66.995,107.500 67.169,107.500 67.595 C 107.500 68.056,107.565 68.167,107.833 68.167 C 108.051 68.167,108.167 68.278,108.167 68.488 C 108.167 68.665,108.279 68.922,108.417 69.060 C 108.554 69.197,108.667 69.465,108.667 69.655 C 108.667 69.889,108.774 70.000,109.000 70.000 C 109.222 70.000,109.333 70.111,109.333 70.333 C 109.333 70.556,109.444 70.667,109.667 70.667 C 109.889 70.667,110.000 70.778,110.000 71.000 C 110.000 71.222,110.111 71.333,110.333 71.333 C 110.556 71.333,110.667 71.444,110.667 71.667 C 110.667 71.852,110.778 72.000,110.917 72.000 C 111.054 72.000,111.167 72.112,111.167 72.250 C 111.167 72.389,111.315 72.500,111.500 72.500 C 111.722 72.500,111.833 72.611,111.833 72.833 C 111.833 73.056,111.944 73.167,112.167 73.167 C 112.389 73.167,112.500 73.278,112.500 73.500 C 112.500 73.722,112.611 73.833,112.833 73.833 C 113.019 73.833,113.167 73.944,113.167 74.083 C 113.167 74.221,113.311 74.333,113.486 74.333 C 113.983 74.333,114.333 74.513,114.333 74.768 C 114.333 74.928,114.541 75.000,115.000 75.000 C 115.556 75.000,115.667 75.056,115.667 75.333 C 115.667 75.626,115.778 75.667,116.583 75.667 C 117.389 75.667,117.500 75.707,117.500 76.000 C 117.500 76.310,117.611 76.333,119.083 76.333 C 120.380 76.333,120.667 76.379,120.667 76.583 C 120.667 76.792,121.009 76.833,122.750 76.833 C 124.491 76.833,124.833 76.792,124.833 76.583 C 124.833 76.382,125.091 76.333,126.153 76.333 C 127.617 76.333,128.000 76.243,128.000 75.899 C 128.000 75.739,128.208 75.667,128.667 75.667 C 129.222 75.667,129.333 75.611,129.333 75.333 C 129.333 75.063,129.444 75.000,129.917 75.000 C 130.304 75.000,130.500 74.922,130.500 74.768 C 130.500 74.499,130.855 74.333,131.430 74.333 C 131.677 74.333,131.833 74.237,131.833 74.083 C 131.833 73.944,131.981 73.833,132.167 73.833 C 132.350 73.833,132.650 73.683,132.833 73.500 C 133.017 73.317,133.279 73.167,133.417 73.167 C 133.556 73.167,133.667 73.019,133.667 72.833 C 133.667 72.650,133.760 72.499,133.875 72.497 C 134.129 72.494,134.833 71.774,134.833 71.518 C 134.833 71.417,134.983 71.333,135.167 71.333 C 135.382 71.333,135.500 71.222,135.500 71.019 C 135.500 70.846,135.649 70.667,135.833 70.618 C 136.076 70.555,136.167 70.391,136.167 70.016 C 136.167 69.679,136.250 69.500,136.405 69.500 C 136.537 69.500,136.692 69.350,136.750 69.167 C 136.808 68.983,136.963 68.833,137.095 68.833 C 137.262 68.833,137.333 68.634,137.333 68.167 C 137.333 67.611,137.389 67.500,137.667 67.500 C 137.934 67.500,138.000 67.389,138.000 66.936 C 138.000 66.512,138.083 66.351,138.333 66.285 C 138.610 66.213,138.667 66.058,138.667 65.367 C 138.667 64.825,138.745 64.506,138.891 64.450 C 139.044 64.391,139.149 63.881,139.223 62.836 C 139.289 61.906,139.430 61.169,139.582 60.951 C 139.800 60.640,139.833 59.050,139.833 48.959 L 139.833 37.325 139.399 37.160 C 139.140 37.061,137.173 37.013,134.531 37.039 L 130.098 37.083 129.982 37.500 C 129.919 37.729,129.857 43.204,129.845 49.667 C 129.826 59.716,129.787 61.463,129.578 61.740 C 129.443 61.918,129.333 62.303,129.333 62.596 C 129.333 62.988,129.246 63.151,129.000 63.215 C 128.745 63.282,128.667 63.442,128.667 63.901 C 128.667 64.389,128.605 64.500,128.333 64.500 C 128.145 64.500,128.000 64.611,128.000 64.755 C 128.000 64.896,127.888 65.054,127.750 65.106 C 127.612 65.159,127.500 65.307,127.500 65.434 C 127.500 65.581,127.316 65.667,127.001 65.667 C 126.683 65.667,126.427 65.787,126.295 66.000 C 126.156 66.223,125.906 66.333,125.543 66.333 C 125.111 66.333,125.000 66.402,125.000 66.667 C 125.000 66.983,124.889 67.000,122.769 67.000 C 120.679 67.000,120.533 66.979,120.452 66.667 C 120.379 66.388,120.224 66.333,119.516 66.333 C 118.778 66.333,118.667 66.290,118.667 66.000 C 118.667 65.732,118.556 65.667,118.103 65.667 C 117.679 65.667,117.517 65.584,117.452 65.333 C 117.404 65.150,117.245 65.000,117.099 65.000 C 116.913 65.000,116.833 64.845,116.833 64.484 C 116.833 64.109,116.743 63.945,116.500 63.882 C 116.261 63.819,116.167 63.654,116.167 63.298 C 116.167 62.942,116.072 62.778,115.833 62.715 C 115.553 62.642,115.500 62.488,115.500 61.739 C 115.500 61.124,115.423 60.807,115.251 60.711 C 115.035 60.590,114.997 59.039,114.959 48.827 L 114.917 37.083 110.405 37.039 C 107.924 37.015,105.843 37.046,105.780 37.108 M239.700 37.200 C 239.488 37.412,239.397 61.349,239.605 62.125 C 239.660 62.331,239.809 62.500,239.936 62.500 C 240.112 62.500,240.167 62.797,240.167 63.750 C 240.167 64.889,240.196 65.000,240.500 65.000 C 240.790 65.000,240.833 65.111,240.833 65.849 C 240.833 66.558,240.888 66.712,241.167 66.785 C 241.418 66.851,241.500 67.012,241.500 67.441 C 241.500 67.793,241.595 68.047,241.750 68.106 C 241.887 68.159,242.000 68.314,242.000 68.450 C 242.000 68.586,242.150 68.737,242.333 68.785 C 242.584 68.851,242.667 69.012,242.667 69.436 C 242.667 69.889,242.732 70.000,243.000 70.000 C 243.222 70.000,243.333 70.111,243.333 70.333 C 243.333 70.556,243.444 70.667,243.667 70.667 C 243.889 70.667,244.000 70.778,244.000 71.000 C 244.000 71.185,244.111 71.333,244.250 71.333 C 244.387 71.333,244.500 71.453,244.500 71.599 C 244.500 71.745,244.650 71.904,244.833 71.952 C 245.017 72.000,245.167 72.143,245.167 72.269 C 245.167 72.396,245.317 72.500,245.500 72.500 C 245.722 72.500,245.833 72.611,245.833 72.833 C 245.833 73.056,245.944 73.167,246.167 73.167 C 246.389 73.167,246.500 73.278,246.500 73.500 C 246.500 73.770,246.611 73.833,247.083 73.833 C 247.491 73.833,247.667 73.909,247.667 74.083 C 247.667 74.222,247.815 74.333,248.000 74.333 C 248.222 74.333,248.333 74.444,248.333 74.667 C 248.333 74.934,248.444 75.000,248.897 75.000 C 249.321 75.000,249.483 75.083,249.548 75.333 C 249.621 75.611,249.776 75.667,250.473 75.667 C 251.164 75.667,251.329 75.725,251.417 76.000 C 251.512 76.300,251.669 76.333,252.993 76.333 C 254.147 76.333,254.485 76.387,254.560 76.583 C 254.638 76.787,255.042 76.833,256.745 76.833 C 258.490 76.833,258.833 76.792,258.833 76.583 C 258.833 76.379,259.113 76.333,260.349 76.333 C 261.724 76.333,261.873 76.303,261.952 76.000 C 262.024 75.723,262.179 75.667,262.868 75.667 C 263.558 75.667,263.713 75.610,263.785 75.333 C 263.851 75.083,264.012 75.000,264.436 75.000 C 264.841 75.000,265.000 74.925,265.000 74.734 C 265.000 74.588,265.150 74.430,265.333 74.382 C 265.517 74.334,265.667 74.191,265.667 74.064 C 265.667 73.910,265.867 73.833,266.266 73.833 C 266.715 73.833,266.885 73.754,266.948 73.515 C 266.993 73.341,267.174 73.160,267.349 73.114 C 267.524 73.069,267.667 72.912,267.667 72.766 C 267.667 72.620,267.779 72.500,267.917 72.500 C 268.054 72.500,268.167 72.396,268.167 72.269 C 268.167 72.143,268.317 72.000,268.500 71.952 C 268.683 71.904,268.833 71.745,268.833 71.599 C 268.833 71.444,268.973 71.333,269.167 71.333 C 269.389 71.333,269.500 71.222,269.500 71.000 C 269.500 70.817,269.607 70.667,269.739 70.667 C 269.870 70.667,270.023 70.524,270.078 70.349 C 270.134 70.174,270.289 69.989,270.423 69.937 C 270.563 69.884,270.667 69.628,270.667 69.339 C 270.667 68.944,270.740 68.833,271.000 68.833 C 271.278 68.833,271.333 68.722,271.333 68.167 C 271.333 67.611,271.389 67.500,271.667 67.500 C 271.937 67.500,272.000 67.389,272.000 66.917 C 272.000 66.509,272.075 66.333,272.250 66.333 C 272.414 66.333,272.500 66.170,272.500 65.859 C 272.500 65.598,272.650 65.211,272.833 65.000 C 273.105 64.687,273.167 64.376,273.167 63.319 C 273.167 62.169,273.204 62.011,273.500 61.917 C 273.829 61.812,273.833 61.664,273.833 49.492 L 273.833 37.173 273.457 37.079 C 272.547 36.850,264.159 37.076,263.996 37.333 C 263.901 37.485,263.837 42.393,263.836 49.774 C 263.834 60.303,263.800 61.977,263.590 62.058 C 263.445 62.113,263.302 62.491,263.235 62.992 C 263.163 63.539,263.044 63.833,262.895 63.833 C 262.770 63.833,262.667 63.983,262.667 64.167 C 262.667 64.389,262.556 64.500,262.333 64.500 C 262.111 64.500,262.000 64.611,262.000 64.833 C 262.000 65.056,261.889 65.167,261.667 65.167 C 261.481 65.167,261.333 65.278,261.333 65.417 C 261.333 65.554,261.221 65.667,261.083 65.667 C 260.944 65.667,260.833 65.815,260.833 66.000 C 260.833 66.294,260.722 66.333,259.901 66.333 C 259.109 66.333,258.956 66.383,258.882 66.667 C 258.800 66.978,258.654 67.000,256.667 67.000 C 254.679 67.000,254.533 66.978,254.452 66.667 C 254.379 66.388,254.224 66.333,253.516 66.333 C 252.778 66.333,252.667 66.290,252.667 66.000 C 252.667 65.778,252.556 65.667,252.333 65.667 C 252.148 65.667,252.000 65.556,252.000 65.417 C 252.000 65.278,251.852 65.167,251.667 65.167 C 251.483 65.167,251.333 65.058,251.333 64.925 C 251.333 64.792,251.234 64.623,251.112 64.550 C 250.991 64.477,250.843 64.285,250.784 64.125 C 250.725 63.965,250.562 63.833,250.422 63.833 C 250.241 63.833,250.167 63.663,250.167 63.250 C 250.167 62.778,250.103 62.667,249.833 62.667 C 249.530 62.667,249.500 62.556,249.500 61.417 C 249.500 60.278,249.470 60.167,249.167 60.167 C 248.837 60.167,248.833 60.056,248.833 48.583 L 248.833 37.000 244.367 37.000 C 241.115 37.000,239.846 37.054,239.700 37.200 M165.500 46.667 C 165.500 46.934,165.611 47.000,166.064 47.000 C 166.488 47.000,166.649 47.083,166.715 47.333 C 166.779 47.579,166.942 47.667,167.333 47.667 C 167.724 47.667,167.888 47.755,167.952 48.000 C 168.000 48.183,168.143 48.333,168.269 48.333 C 168.396 48.333,168.500 48.446,168.500 48.583 C 168.500 48.722,168.648 48.833,168.833 48.833 C 169.056 48.833,169.167 48.944,169.167 49.167 C 169.167 49.389,169.278 49.500,169.500 49.500 C 169.722 49.500,169.833 49.611,169.833 49.833 C 169.833 50.019,169.944 50.167,170.083 50.167 C 170.252 50.167,170.333 50.335,170.333 50.682 C 170.333 51.058,170.424 51.222,170.667 51.285 C 170.948 51.359,171.000 51.512,171.000 52.269 C 171.000 53.056,171.041 53.167,171.333 53.167 C 171.655 53.167,171.667 53.278,171.667 56.333 C 171.667 58.929,171.625 59.500,171.434 59.500 C 171.135 59.500,171.000 59.866,171.000 60.680 C 171.000 61.132,170.927 61.333,170.765 61.333 C 170.620 61.333,170.486 61.590,170.417 62.000 C 170.347 62.410,170.213 62.667,170.069 62.667 C 169.911 62.667,169.833 62.859,169.833 63.250 C 169.833 63.722,169.770 63.833,169.500 63.833 C 169.278 63.833,169.167 63.944,169.167 64.167 C 169.167 64.389,169.056 64.500,168.833 64.500 C 168.650 64.500,168.500 64.609,168.500 64.742 C 168.500 64.888,168.266 65.029,167.917 65.094 C 167.583 65.157,167.333 65.303,167.333 65.435 C 167.333 65.581,167.149 65.667,166.835 65.667 C 166.517 65.667,166.261 65.787,166.128 66.000 C 165.966 66.259,165.739 66.333,165.111 66.333 C 164.442 66.333,164.287 66.391,164.215 66.667 C 164.134 66.978,163.988 67.000,161.992 67.000 C 160.002 67.000,159.849 66.977,159.750 66.667 C 159.662 66.388,159.498 66.333,158.758 66.333 C 158.012 66.333,157.858 66.281,157.785 66.000 C 157.722 65.757,157.558 65.667,157.182 65.667 C 156.853 65.667,156.667 65.583,156.667 65.435 C 156.667 65.303,156.417 65.157,156.083 65.094 C 155.734 65.029,155.500 64.888,155.500 64.742 C 155.500 64.609,155.350 64.500,155.167 64.500 C 154.944 64.500,154.833 64.389,154.833 64.167 C 154.833 63.944,154.722 63.833,154.500 63.833 C 154.230 63.833,154.167 63.722,154.167 63.250 C 154.167 62.778,154.103 62.667,153.833 62.667 C 153.573 62.667,153.500 62.556,153.500 62.161 C 153.500 61.866,153.396 61.616,153.250 61.560 C 153.089 61.499,153.000 61.241,153.000 60.841 C 153.000 60.430,152.887 60.116,152.667 59.917 C 152.355 59.635,152.333 59.403,152.333 56.410 C 152.333 53.346,152.348 53.202,152.667 53.118 C 152.945 53.046,153.000 52.891,153.000 52.182 C 153.000 51.539,153.060 51.333,153.250 51.333 C 153.425 51.333,153.500 51.157,153.500 50.750 C 153.500 50.278,153.563 50.167,153.833 50.167 C 154.056 50.167,154.167 50.056,154.167 49.833 C 154.167 49.611,154.278 49.500,154.500 49.500 C 154.722 49.500,154.833 49.389,154.833 49.167 C 154.833 48.944,154.944 48.833,155.167 48.833 C 155.352 48.833,155.500 48.722,155.500 48.583 C 155.500 48.446,155.612 48.333,155.750 48.333 C 155.889 48.333,156.000 48.185,156.000 48.000 C 156.000 47.722,156.111 47.667,156.667 47.667 C 157.222 47.667,157.333 47.611,157.333 47.333 C 157.333 47.063,157.444 47.000,157.917 47.000 C 158.389 47.000,158.500 46.937,158.500 46.667 C 158.500 46.344,158.611 46.333,162.000 46.333 C 165.389 46.333,165.500 46.344,165.500 46.667 M299.382 46.667 C 299.455 46.946,299.609 47.000,300.333 47.000 C 301.058 47.000,301.212 47.054,301.285 47.333 C 301.333 47.517,301.468 47.667,301.585 47.667 C 301.702 47.667,301.839 47.775,301.890 47.907 C 301.941 48.040,302.249 48.198,302.575 48.259 C 302.915 48.323,303.167 48.469,303.167 48.602 C 303.167 48.729,303.271 48.833,303.398 48.833 C 303.531 48.833,303.677 49.085,303.741 49.425 C 303.802 49.751,303.960 50.059,304.093 50.110 C 304.225 50.161,304.333 50.298,304.333 50.415 C 304.333 50.532,304.483 50.667,304.667 50.715 C 304.922 50.782,305.000 50.942,305.000 51.401 C 305.000 51.889,305.062 52.000,305.333 52.000 C 305.642 52.000,305.667 52.111,305.667 53.500 C 305.667 54.722,305.713 55.000,305.917 55.000 C 306.120 55.000,306.167 55.276,306.167 56.480 C 306.167 57.591,306.105 58.011,305.917 58.167 C 305.740 58.314,305.667 58.703,305.667 59.501 C 305.667 60.488,305.625 60.639,305.333 60.715 C 305.081 60.781,305.000 60.942,305.000 61.382 C 305.000 61.821,304.919 61.982,304.667 62.048 C 304.428 62.111,304.333 62.276,304.333 62.632 C 304.333 62.988,304.239 63.152,304.000 63.215 C 303.817 63.263,303.667 63.422,303.667 63.568 C 303.667 63.714,303.554 63.833,303.417 63.833 C 303.278 63.833,303.167 63.981,303.167 64.167 C 303.167 64.389,303.056 64.500,302.833 64.500 C 302.639 64.500,302.500 64.611,302.500 64.766 C 302.500 64.912,302.350 65.070,302.167 65.118 C 301.983 65.166,301.833 65.309,301.833 65.436 C 301.833 65.588,301.636 65.667,301.250 65.667 C 300.778 65.667,300.667 65.730,300.667 66.000 C 300.667 66.293,300.556 66.333,299.750 66.333 C 298.944 66.333,298.833 66.374,298.833 66.667 C 298.833 66.985,298.722 67.000,296.345 67.000 C 294.002 67.000,293.850 66.980,293.750 66.667 C 293.661 66.387,293.498 66.333,292.739 66.333 C 291.944 66.333,291.833 66.292,291.833 66.000 C 291.833 65.730,291.722 65.667,291.250 65.667 C 290.864 65.667,290.667 65.588,290.667 65.436 C 290.667 65.309,290.517 65.166,290.333 65.118 C 290.150 65.070,290.000 64.912,290.000 64.766 C 290.000 64.611,289.861 64.500,289.667 64.500 C 289.444 64.500,289.333 64.389,289.333 64.167 C 289.333 63.981,289.222 63.833,289.083 63.833 C 288.946 63.833,288.833 63.714,288.833 63.568 C 288.833 63.422,288.683 63.263,288.500 63.215 C 288.285 63.159,288.167 62.988,288.167 62.732 C 288.167 62.514,288.017 62.242,287.833 62.128 C 287.608 61.987,287.500 61.739,287.500 61.361 C 287.500 60.942,287.416 60.780,287.167 60.715 C 286.869 60.637,286.833 60.488,286.833 59.334 C 286.833 58.388,286.766 57.985,286.583 57.833 C 286.400 57.681,286.333 57.277,286.333 56.313 C 286.333 55.257,286.382 55.000,286.583 55.000 C 286.785 55.000,286.833 54.741,286.833 53.668 C 286.833 52.517,286.879 52.308,287.167 52.128 C 287.392 51.987,287.500 51.739,287.500 51.361 C 287.500 50.942,287.584 50.780,287.833 50.715 C 288.017 50.667,288.167 50.542,288.167 50.437 C 288.167 50.333,288.317 50.153,288.500 50.039 C 288.713 49.906,288.833 49.650,288.833 49.332 C 288.833 49.017,288.919 48.833,289.066 48.833 C 289.193 48.833,289.341 48.721,289.394 48.583 C 289.446 48.446,289.636 48.333,289.814 48.333 C 290.316 48.333,290.667 48.155,290.667 47.899 C 290.667 47.771,290.777 47.667,290.911 47.667 C 291.045 47.667,291.235 47.517,291.333 47.333 C 291.472 47.075,291.682 47.000,292.271 47.000 C 292.891 47.000,293.047 46.939,293.118 46.667 C 293.202 46.349,293.346 46.333,296.250 46.333 C 299.154 46.333,299.298 46.349,299.382 46.667 " stroke="none" fill="#fcfcfc" fill-rule="evenodd"></path><path id="path1" d="M376.667 7.500 C 376.667 7.770,376.556 7.833,376.078 7.833 C 375.720 7.833,375.454 7.927,375.398 8.073 C 375.347 8.205,375.087 8.361,374.820 8.420 C 374.554 8.478,374.279 8.620,374.209 8.734 C 374.140 8.848,373.952 8.990,373.792 9.049 C 373.631 9.108,373.500 9.271,373.500 9.411 C 373.500 9.552,373.391 9.667,373.258 9.667 C 373.112 9.667,372.971 9.901,372.906 10.250 C 372.843 10.584,372.697 10.833,372.565 10.833 C 372.437 10.833,372.333 10.975,372.333 11.147 C 372.333 11.321,372.184 11.500,372.000 11.548 C 371.722 11.621,371.667 11.776,371.667 12.473 C 371.667 13.164,371.608 13.329,371.333 13.417 C 370.770 13.595,370.868 17.667,371.436 17.667 C 371.594 17.667,371.667 17.877,371.667 18.333 C 371.667 18.889,371.722 19.000,372.000 19.000 C 372.222 19.000,372.333 19.111,372.333 19.333 C 372.333 19.519,372.444 19.667,372.583 19.667 C 372.721 19.667,372.833 19.779,372.833 19.917 C 372.833 20.056,372.981 20.167,373.167 20.167 C 373.389 20.167,373.500 20.278,373.500 20.500 C 373.500 20.722,373.611 20.833,373.833 20.833 C 374.056 20.833,374.167 20.944,374.167 21.167 C 374.167 21.444,374.278 21.500,374.833 21.500 C 375.290 21.500,375.500 21.573,375.500 21.731 C 375.500 22.312,381.967 22.413,382.118 21.833 C 382.192 21.551,382.346 21.500,383.118 21.500 C 383.891 21.500,384.045 21.449,384.118 21.167 C 384.184 20.916,384.346 20.833,384.769 20.833 C 385.222 20.833,385.333 20.768,385.333 20.500 C 385.333 20.232,385.444 20.167,385.899 20.167 C 386.248 20.167,386.501 20.071,386.560 19.917 C 386.613 19.779,386.771 19.667,386.911 19.667 C 387.052 19.667,387.167 19.525,387.167 19.353 C 387.167 19.179,387.316 19.000,387.500 18.952 C 387.755 18.885,387.833 18.724,387.833 18.266 C 387.833 17.778,387.895 17.667,388.167 17.667 C 388.437 17.667,388.500 17.556,388.500 17.083 C 388.500 16.684,388.576 16.500,388.742 16.500 C 389.294 16.500,389.328 12.614,388.779 12.306 C 388.604 12.208,388.500 11.940,388.500 11.586 C 388.500 11.169,388.413 10.995,388.167 10.917 C 387.983 10.858,387.833 10.703,387.833 10.572 C 387.833 10.441,387.683 10.333,387.500 10.333 C 387.278 10.333,387.167 10.222,387.167 10.000 C 387.167 9.815,387.056 9.667,386.917 9.667 C 386.778 9.667,386.667 9.519,386.667 9.333 C 386.667 9.111,386.556 9.000,386.333 9.000 C 386.150 9.000,386.000 8.893,386.000 8.761 C 386.000 8.630,385.850 8.475,385.667 8.417 C 385.483 8.358,385.333 8.203,385.333 8.072 C 385.333 7.911,385.147 7.833,384.761 7.833 C 384.336 7.833,384.162 7.748,384.083 7.500 C 383.982 7.180,383.831 7.167,380.322 7.167 C 376.778 7.167,376.667 7.177,376.667 7.500 M346.167 8.083 C 346.167 8.269,345.972 8.333,345.417 8.333 C 344.889 8.333,344.568 8.432,344.333 8.667 C 344.150 8.850,343.805 9.000,343.568 9.000 C 343.276 9.000,343.107 9.108,343.048 9.333 C 343.000 9.518,342.821 9.667,342.647 9.667 C 342.444 9.667,342.333 9.785,342.333 10.000 C 342.333 10.183,342.262 10.333,342.175 10.333 C 341.968 10.333,341.167 11.078,341.167 11.271 C 341.167 11.353,341.017 11.513,340.833 11.628 C 340.626 11.758,340.500 12.017,340.500 12.315 C 340.500 12.654,340.402 12.820,340.167 12.882 C 339.887 12.955,339.832 13.111,339.828 13.859 C 339.825 14.377,339.720 14.886,339.578 15.074 C 339.229 15.535,339.234 17.667,339.583 17.667 C 339.776 17.667,339.833 17.881,339.833 18.599 C 339.833 19.391,339.883 19.544,340.167 19.618 C 340.350 19.666,340.500 19.809,340.500 19.936 C 340.500 20.063,340.650 20.167,340.833 20.167 C 341.087 20.167,341.167 20.278,341.167 20.633 C 341.167 21.193,341.437 21.500,341.931 21.500 C 342.154 21.500,342.328 21.628,342.382 21.833 C 342.448 22.089,342.609 22.167,343.068 22.167 C 343.489 22.167,343.667 22.241,343.667 22.417 C 343.667 22.632,344.214 22.667,347.589 22.667 C 350.921 22.667,351.525 22.629,351.606 22.417 C 351.666 22.261,351.921 22.167,352.283 22.167 C 352.724 22.167,352.886 22.086,352.952 21.833 C 353.014 21.594,353.179 21.500,353.535 21.500 C 353.891 21.500,354.056 21.406,354.118 21.167 C 354.167 20.982,354.346 20.833,354.519 20.833 C 354.722 20.833,354.833 20.715,354.833 20.500 C 354.833 20.278,354.944 20.167,355.167 20.167 C 355.352 20.167,355.500 20.056,355.500 19.917 C 355.500 19.779,355.613 19.667,355.750 19.667 C 355.931 19.667,356.000 19.481,356.000 19.000 C 356.000 18.444,356.056 18.333,356.333 18.333 C 356.601 18.333,356.667 18.222,356.667 17.769 C 356.667 17.346,356.750 17.184,357.000 17.118 C 357.307 17.038,357.333 16.891,357.333 15.277 C 357.333 13.669,357.306 13.514,357.000 13.417 C 356.752 13.338,356.667 13.164,356.667 12.739 C 356.667 12.278,356.602 12.167,356.333 12.167 C 356.063 12.167,356.000 12.056,356.000 11.578 C 356.000 11.209,355.907 10.954,355.750 10.894 C 355.613 10.841,355.500 10.693,355.500 10.566 C 355.500 10.438,355.350 10.333,355.167 10.333 C 354.944 10.333,354.833 10.222,354.833 10.000 C 354.833 9.722,354.722 9.667,354.167 9.667 C 353.611 9.667,353.500 9.611,353.500 9.333 C 353.500 9.063,353.389 9.000,352.917 9.000 C 352.529 9.000,352.333 8.922,352.333 8.768 C 352.333 8.467,351.967 8.333,351.141 8.333 C 350.772 8.333,350.365 8.222,350.226 8.083 C 350.033 7.890,349.542 7.833,348.071 7.833 C 346.489 7.833,346.167 7.876,346.167 8.083 M380.554 34.616 C 380.354 34.655,380.101 34.795,379.992 34.927 C 379.833 35.118,379.233 35.167,377.047 35.167 C 374.442 35.167,374.298 35.184,374.215 35.500 C 374.131 35.821,373.988 35.833,370.215 35.833 C 366.442 35.833,366.299 35.845,366.215 36.167 C 366.129 36.494,365.988 36.500,358.679 36.500 C 352.388 36.500,351.180 36.538,350.907 36.745 C 350.635 36.950,349.512 36.990,343.896 36.995 C 336.996 37.000,336.167 37.048,336.167 37.438 C 336.167 37.583,335.977 37.667,335.651 37.667 C 335.276 37.667,335.112 37.757,335.048 38.000 C 335.000 38.184,334.821 38.333,334.647 38.333 C 334.444 38.333,334.333 38.451,334.333 38.667 C 334.333 38.889,334.222 39.000,334.000 39.000 C 333.730 39.000,333.667 39.111,333.667 39.583 C 333.667 40.056,333.603 40.167,333.333 40.167 C 333.111 40.167,333.000 40.278,333.000 40.500 C 333.000 40.683,332.896 40.833,332.768 40.833 C 332.512 40.833,332.333 41.184,332.333 41.686 C 332.333 41.864,332.221 42.054,332.083 42.106 C 331.905 42.175,331.833 42.454,331.833 43.082 C 331.833 43.821,331.780 43.975,331.500 44.048 C 331.193 44.128,331.167 44.276,331.167 45.882 C 331.167 47.488,331.140 47.635,330.833 47.715 C 330.513 47.799,330.500 47.942,330.500 51.312 C 330.500 54.651,330.516 54.830,330.833 55.000 C 331.138 55.163,331.167 55.349,331.167 57.171 C 331.167 58.983,331.197 59.183,331.500 59.372 C 331.780 59.547,331.833 59.761,331.833 60.712 C 331.833 61.564,331.895 61.867,332.083 61.940 C 332.245 62.002,332.333 62.260,332.333 62.671 C 332.333 63.468,332.470 63.833,332.768 63.833 C 332.936 63.833,333.000 64.068,333.000 64.682 C 333.000 65.391,333.055 65.546,333.333 65.618 C 333.586 65.684,333.667 65.846,333.667 66.285 C 333.667 66.724,333.747 66.886,334.000 66.952 C 334.250 67.017,334.333 67.179,334.333 67.603 C 334.333 67.993,334.410 68.167,334.583 68.167 C 334.759 68.167,334.833 68.344,334.833 68.766 C 334.833 69.224,334.911 69.385,335.167 69.452 C 335.417 69.517,335.500 69.679,335.500 70.103 C 335.500 70.556,335.566 70.667,335.833 70.667 C 336.056 70.667,336.167 70.778,336.167 71.000 C 336.167 71.222,336.278 71.333,336.500 71.333 C 336.770 71.333,336.833 71.444,336.833 71.917 C 336.833 72.324,336.909 72.500,337.083 72.500 C 337.222 72.500,337.333 72.648,337.333 72.833 C 337.333 73.056,337.444 73.167,337.667 73.167 C 337.889 73.167,338.000 73.278,338.000 73.500 C 338.000 73.722,338.111 73.833,338.333 73.833 C 338.595 73.833,338.667 73.944,338.667 74.349 C 338.667 74.724,338.757 74.888,339.000 74.952 C 339.184 75.000,339.333 75.179,339.333 75.353 C 339.333 75.525,339.429 75.667,339.546 75.667 C 339.663 75.667,339.888 75.817,340.045 76.000 C 340.202 76.183,340.477 76.333,340.657 76.333 C 340.836 76.333,341.043 76.433,341.117 76.554 C 341.190 76.676,341.381 76.823,341.542 76.882 C 341.702 76.941,341.833 77.104,341.833 77.245 C 341.833 77.385,341.937 77.500,342.064 77.500 C 342.191 77.500,342.334 77.650,342.382 77.833 C 342.448 78.089,342.609 78.167,343.068 78.167 C 343.556 78.167,343.667 78.229,343.667 78.500 C 343.667 78.722,343.778 78.833,344.000 78.833 C 344.185 78.833,344.333 78.944,344.333 79.083 C 344.333 79.258,344.509 79.333,344.917 79.333 C 345.389 79.333,345.500 79.397,345.500 79.667 C 345.500 79.960,345.611 80.000,346.417 80.000 C 347.222 80.000,347.333 80.040,347.333 80.333 C 347.333 80.626,347.444 80.667,348.242 80.667 C 348.934 80.667,349.189 80.736,349.313 80.958 C 349.628 81.521,359.167 81.473,359.167 80.909 C 359.167 80.724,359.401 80.667,360.153 80.667 C 361.290 80.667,361.667 80.559,361.667 80.232 C 361.667 80.077,361.865 80.000,362.266 80.000 C 362.724 80.000,362.885 79.922,362.952 79.667 C 363.024 79.390,363.179 79.333,363.858 79.333 C 364.432 79.333,364.706 79.259,364.773 79.083 C 364.829 78.938,365.078 78.833,365.367 78.833 C 365.724 78.833,365.889 78.739,365.952 78.500 C 366.018 78.247,366.179 78.167,366.618 78.167 C 367.058 78.167,367.219 78.086,367.285 77.833 C 367.348 77.594,367.512 77.500,367.868 77.500 C 368.224 77.500,368.389 77.406,368.452 77.167 C 368.500 76.982,368.679 76.833,368.853 76.833 C 369.025 76.833,369.167 76.721,369.167 76.583 C 369.167 76.415,369.335 76.333,369.682 76.333 C 370.058 76.333,370.222 76.243,370.285 76.000 C 370.333 75.816,370.512 75.667,370.686 75.667 C 370.889 75.667,371.000 75.549,371.000 75.333 C 371.000 75.063,371.111 75.000,371.583 75.000 C 372.006 75.000,372.167 74.927,372.167 74.734 C 372.167 74.588,372.317 74.430,372.500 74.382 C 372.683 74.334,372.833 74.191,372.833 74.064 C 372.833 73.937,372.983 73.833,373.167 73.833 C 373.389 73.833,373.500 73.722,373.500 73.500 C 373.500 73.278,373.611 73.167,373.833 73.167 C 374.017 73.167,374.317 73.017,374.500 72.833 C 374.683 72.650,374.946 72.500,375.083 72.500 C 375.221 72.500,375.333 72.393,375.333 72.261 C 375.333 72.130,375.483 71.975,375.667 71.917 C 375.850 71.858,376.000 71.703,376.000 71.572 C 376.000 71.441,376.150 71.333,376.333 71.333 C 376.549 71.333,376.667 71.222,376.667 71.019 C 376.667 70.846,376.816 70.667,377.000 70.618 C 377.183 70.570,377.333 70.412,377.333 70.266 C 377.333 70.120,377.446 70.000,377.583 70.000 C 377.721 70.000,377.833 69.896,377.833 69.769 C 377.833 69.643,377.983 69.500,378.167 69.452 C 378.350 69.404,378.500 69.245,378.500 69.099 C 378.500 68.944,378.639 68.833,378.833 68.833 C 379.056 68.833,379.167 68.722,379.167 68.500 C 379.167 68.315,379.278 68.167,379.417 68.167 C 379.556 68.167,379.667 68.019,379.667 67.833 C 379.667 67.611,379.778 67.500,380.000 67.500 C 380.185 67.500,380.333 67.389,380.333 67.250 C 380.333 67.111,380.481 67.000,380.667 67.000 C 380.882 67.000,381.000 66.889,381.000 66.686 C 381.000 66.512,381.149 66.333,381.333 66.285 C 381.517 66.237,381.667 66.078,381.667 65.932 C 381.667 65.786,381.779 65.667,381.917 65.667 C 382.054 65.667,382.167 65.525,382.167 65.353 C 382.167 65.179,382.316 65.000,382.500 64.952 C 382.743 64.888,382.833 64.724,382.833 64.349 C 382.833 63.944,382.905 63.833,383.167 63.833 C 383.389 63.833,383.500 63.722,383.500 63.500 C 383.500 63.278,383.611 63.167,383.833 63.167 C 384.056 63.167,384.167 63.056,384.167 62.833 C 384.167 62.648,384.278 62.500,384.417 62.500 C 384.554 62.500,384.667 62.387,384.667 62.250 C 384.667 62.112,384.817 61.850,385.000 61.667 C 385.183 61.483,385.333 61.183,385.333 61.000 C 385.333 60.778,385.444 60.667,385.667 60.667 C 385.889 60.667,386.000 60.556,386.000 60.333 C 386.000 60.150,386.104 60.000,386.232 60.000 C 386.487 60.000,386.667 59.650,386.667 59.153 C 386.667 58.977,386.779 58.833,386.917 58.833 C 387.056 58.833,387.167 58.685,387.167 58.500 C 387.167 58.278,387.278 58.167,387.500 58.167 C 387.768 58.167,387.833 58.056,387.833 57.603 C 387.833 57.179,387.916 57.017,388.167 56.952 C 388.419 56.886,388.500 56.724,388.500 56.285 C 388.500 55.846,388.581 55.684,388.833 55.618 C 389.017 55.570,389.167 55.412,389.167 55.266 C 389.167 55.120,389.279 55.000,389.417 55.000 C 389.590 55.000,389.667 54.826,389.667 54.436 C 389.667 54.012,389.750 53.851,390.000 53.785 C 390.255 53.718,390.333 53.558,390.333 53.099 C 390.333 52.698,390.410 52.500,390.566 52.500 C 390.852 52.500,391.000 52.139,391.000 51.440 C 391.000 51.114,391.129 50.797,391.333 50.622 C 391.517 50.465,391.667 50.156,391.667 49.936 C 391.667 49.716,391.779 49.492,391.917 49.440 C 392.093 49.372,392.167 49.098,392.167 48.511 C 392.167 47.849,392.235 47.642,392.500 47.500 C 392.820 47.329,392.833 47.151,392.833 43.161 C 392.833 39.111,392.824 39.000,392.500 39.000 C 392.222 39.000,392.167 38.889,392.167 38.333 C 392.167 37.877,392.094 37.667,391.936 37.667 C 391.809 37.667,391.666 37.517,391.618 37.333 C 391.570 37.150,391.412 37.000,391.266 37.000 C 391.120 37.000,391.000 36.887,391.000 36.750 C 391.000 36.611,390.852 36.500,390.667 36.500 C 390.444 36.500,390.333 36.389,390.333 36.167 C 390.333 35.951,390.222 35.833,390.019 35.833 C 389.846 35.833,389.667 35.684,389.618 35.500 C 389.546 35.222,389.391 35.167,388.682 35.167 C 388.071 35.167,387.833 35.102,387.833 34.936 C 387.833 34.544,382.196 34.296,380.554 34.616 M381.667 44.147 C 381.667 44.321,381.816 44.500,382.000 44.548 C 382.183 44.596,382.333 44.755,382.333 44.901 C 382.333 45.047,382.446 45.167,382.583 45.167 C 382.935 45.167,382.943 46.968,382.592 47.103 C 382.431 47.165,382.313 47.577,382.237 48.348 C 382.157 49.157,382.056 49.500,381.895 49.500 C 381.740 49.500,381.667 49.713,381.667 50.167 C 381.667 50.722,381.611 50.833,381.333 50.833 C 381.066 50.833,381.000 50.944,381.000 51.397 C 381.000 51.821,380.917 51.983,380.667 52.048 C 380.411 52.115,380.333 52.276,380.333 52.734 C 380.333 53.156,380.259 53.333,380.083 53.333 C 379.909 53.333,379.833 53.509,379.833 53.917 C 379.833 54.389,379.770 54.500,379.500 54.500 C 379.285 54.500,379.167 54.611,379.167 54.814 C 379.167 54.988,379.018 55.167,378.833 55.215 C 378.591 55.278,378.500 55.442,378.500 55.818 C 378.500 56.178,378.420 56.333,378.234 56.333 C 378.088 56.333,377.930 56.483,377.882 56.667 C 377.834 56.850,377.691 57.000,377.564 57.000 C 377.412 57.000,377.333 57.198,377.333 57.583 C 377.333 58.056,377.270 58.167,377.000 58.167 C 376.778 58.167,376.667 58.278,376.667 58.500 C 376.667 58.722,376.556 58.833,376.333 58.833 C 376.118 58.833,376.000 58.944,376.000 59.147 C 376.000 59.321,375.851 59.500,375.667 59.548 C 375.483 59.596,375.333 59.755,375.333 59.901 C 375.333 60.047,375.221 60.167,375.083 60.167 C 374.946 60.167,374.833 60.274,374.833 60.405 C 374.833 60.537,374.683 60.692,374.500 60.750 C 374.317 60.808,374.167 60.963,374.167 61.095 C 374.167 61.226,374.109 61.333,374.039 61.333 C 373.970 61.333,373.586 61.751,373.188 62.261 C 372.789 62.771,372.284 63.257,372.065 63.340 C 371.846 63.424,371.667 63.560,371.667 63.643 C 371.667 63.726,371.517 63.834,371.333 63.882 C 371.150 63.930,371.000 64.088,371.000 64.234 C 371.000 64.380,370.893 64.500,370.761 64.500 C 370.630 64.500,370.475 64.650,370.417 64.833 C 370.358 65.017,370.203 65.167,370.072 65.167 C 369.941 65.167,369.833 65.279,369.833 65.417 C 369.833 65.556,369.685 65.667,369.500 65.667 C 369.278 65.667,369.167 65.778,369.167 66.000 C 369.167 66.222,369.056 66.333,368.833 66.333 C 368.611 66.333,368.500 66.444,368.500 66.667 C 368.500 66.937,368.389 67.000,367.917 67.000 C 367.509 67.000,367.333 67.075,367.333 67.250 C 367.333 67.387,367.214 67.500,367.068 67.500 C 366.922 67.500,366.763 67.650,366.715 67.833 C 366.649 68.084,366.488 68.167,366.064 68.167 C 365.611 68.167,365.500 68.232,365.500 68.500 C 365.500 68.769,365.389 68.833,364.928 68.833 C 364.502 68.833,364.329 68.919,364.250 69.167 C 364.192 69.350,364.016 69.500,363.859 69.500 C 363.702 69.500,363.426 69.602,363.245 69.726 C 363.065 69.851,362.635 70.004,362.292 70.067 C 361.908 70.137,361.667 70.276,361.667 70.424 C 361.667 70.590,361.483 70.667,361.083 70.667 C 360.611 70.667,360.500 70.730,360.500 71.000 C 360.500 71.304,360.389 71.333,359.250 71.333 C 358.111 71.333,358.000 71.363,358.000 71.667 C 358.000 71.988,357.889 72.000,354.853 72.000 C 351.846 72.000,351.702 71.985,351.618 71.667 C 351.542 71.374,351.391 71.333,350.368 71.333 C 349.346 71.333,349.195 71.293,349.118 71.000 C 349.046 70.723,348.891 70.667,348.202 70.667 C 347.512 70.667,347.357 70.610,347.285 70.333 C 347.222 70.094,347.058 70.000,346.700 70.000 C 346.411 70.000,346.162 69.895,346.106 69.750 C 346.046 69.593,345.791 69.500,345.422 69.500 C 344.944 69.500,344.833 69.437,344.833 69.167 C 344.833 68.944,344.722 68.833,344.500 68.833 C 344.278 68.833,344.167 68.722,344.167 68.500 C 344.167 68.315,344.056 68.167,343.917 68.167 C 343.779 68.167,343.667 68.059,343.667 67.928 C 343.667 67.797,343.517 67.642,343.333 67.583 C 343.150 67.525,343.000 67.370,343.000 67.239 C 343.000 67.107,342.850 67.000,342.667 67.000 C 342.444 67.000,342.333 66.889,342.333 66.667 C 342.333 66.444,342.222 66.333,342.000 66.333 C 341.778 66.333,341.667 66.222,341.667 66.000 C 341.667 65.815,341.556 65.667,341.417 65.667 C 341.248 65.667,341.167 65.498,341.167 65.151 C 341.167 64.776,341.076 64.612,340.833 64.548 C 340.585 64.483,340.500 64.321,340.500 63.908 C 340.500 63.502,340.412 63.328,340.167 63.250 C 339.919 63.171,339.833 62.998,339.833 62.572 C 339.833 62.194,339.755 62.000,339.601 62.000 C 339.301 62.000,339.167 61.634,339.167 60.820 C 339.167 60.350,339.096 60.167,338.917 60.167 C 338.717 60.167,338.667 59.921,338.667 58.957 C 338.667 57.927,338.617 57.716,338.333 57.539 C 338.017 57.341,338.000 57.150,338.000 53.768 C 338.000 50.346,338.013 50.202,338.333 50.118 C 338.627 50.042,338.667 49.891,338.667 48.849 C 338.667 47.909,338.718 47.667,338.917 47.667 C 339.070 47.667,339.167 47.511,339.167 47.264 C 339.167 46.342,339.189 46.333,341.676 46.333 C 343.498 46.333,344.012 46.283,344.117 46.096 C 344.227 45.900,345.284 45.850,350.305 45.805 C 355.784 45.755,356.380 45.723,356.568 45.465 C 356.755 45.210,357.291 45.176,361.818 45.132 C 366.394 45.088,366.880 45.056,367.074 44.792 C 367.268 44.525,367.714 44.500,372.227 44.500 C 376.883 44.500,377.183 44.482,377.458 44.181 C 377.900 43.697,381.667 43.667,381.667 44.147 " stroke="none" fill="#6cbb04" fill-rule="evenodd"></path><path id="path2" d="" stroke="none" fill="#100d0bc" fill-rule="evenodd"></path><path id="path3" d="" stroke="none" fill="#100d0bc" fill-rule="evenodd"></path><path id="path4" d="" stroke="none" fill="#100d0bc" fill-rule="evenodd"></path></g></svg>